<svg width="89" height="89" viewBox="0 0 89 89" fill="none" xmlns="http://www.w3.org/2000/svg">
<path d="M76.989 32.8372C83.2374 39.0856 83.2374 49.2162 76.989 55.4646L55.4655 76.9881C49.2171 83.2365 39.0865 83.2365 32.8381 76.9881L11.3145 55.4646C5.06615 49.2162 5.06615 39.0855 11.3145 32.8372L32.8381 11.3136C39.0865 5.06525 49.2171 5.06524 55.4655 11.3136L76.989 32.8372Z" fill="white"/>
<path d="M48.549 36.9411C48.549 31.5969 45.8732 26.9996 43.839 25.5028C43.8294 25.4996 43.6843 25.418 43.6972 25.6314C43.6972 25.6346 43.694 25.6346 43.694 25.6377C43.5263 35.9589 38.1104 38.7549 35.1317 42.5238C28.2586 51.2195 34.6513 60.753 41.1601 62.5134C44.8029 63.4988 40.3187 60.7687 39.7416 55.0008C39.0421 48.0311 48.549 42.7121 48.549 36.9411Z" fill="#323943"/>
<path d="M51.7104 40.4564C51.6684 40.428 51.6104 40.4093 51.5685 40.4751C51.4557 41.7744 50.092 44.5547 48.3641 47.1059C42.5033 55.7608 45.8431 59.9345 47.7226 62.175C48.8122 63.4774 47.7226 62.175 50.4467 60.8446C50.6594 60.7409 55.7659 57.9543 56.3171 51.6059C56.8555 45.4584 53.0612 41.5829 51.7104 40.4564Z" fill="#01943F"/>
</svg>
