<svg width="28" height="33" viewBox="0 0 28 33" fill="none" xmlns="http://www.w3.org/2000/svg">
<path fill-rule="evenodd" clip-rule="evenodd" d="M4.78395 32.6244H23.216C25.8583 32.6244 28 30.4823 28 27.8405V4.78395C28 2.14174 25.8583 0 23.216 0H4.78395C2.14174 0 0 2.14174 0 4.78395V27.8405C0 30.4827 2.14174 32.6244 4.78395 32.6244ZM5.83636 9.38974H12.8586C13.504 9.38974 14.0271 8.86632 14.0267 8.22125C14.0267 7.57582 13.5037 7.05276 12.8582 7.05276H5.83636C5.19093 7.05276 4.66788 7.57582 4.66788 8.22125C4.66788 8.86669 5.19093 9.38974 5.83636 9.38974ZM5.83636 25.6397H22.0539C22.6993 25.6397 23.2224 25.1166 23.222 24.4712C23.222 23.8257 22.6989 23.3027 22.0535 23.3027H5.83636C5.19093 23.3027 4.66788 23.8257 4.66788 24.4712C4.66788 25.1166 5.19093 25.6397 5.83636 25.6397ZM5.83636 17.4806H22.0539C22.6993 17.4806 23.2224 16.9572 23.222 16.3122C23.222 15.6667 22.6989 15.1437 22.0535 15.1437H5.83636C5.19093 15.1437 4.66788 15.6667 4.66788 16.3122C4.66788 16.9576 5.19093 17.4806 5.83636 17.4806Z" fill="#CFB365"/>
</svg>
