<svg width="305" height="80" viewBox="0 0 305 80" fill="none" xmlns="http://www.w3.org/2000/svg">
<path fill-rule="evenodd" clip-rule="evenodd" d="M138.323 45.0756H133.919V38.7396H138.209C140.382 38.7396 141.869 39.9665 141.869 41.9811C141.869 43.937 140.525 45.0756 138.323 45.0756ZM133.919 30.2138H137.951C140.067 30.2138 141.354 31.2945 141.354 33.1339C141.354 35.0029 140.067 36.0243 137.951 36.0243H133.919V30.2138ZM141.296 37.3671C143.212 36.6664 144.671 35.1774 144.671 32.7249C144.671 29.8634 142.441 27.4985 138.237 27.4985H130.792C130.719 27.4985 130.66 27.5592 130.66 27.6337V47.6557C130.66 47.7309 130.719 47.7916 130.792 47.7916H138.609C142.669 47.7916 145.129 45.426 145.129 42.3314C145.129 39.9079 143.413 37.7471 141.296 37.3671Z" fill="black"/>
<mask id="mask0" mask-type="alpha" maskUnits="userSpaceOnUse" x="71" y="12" width="163" height="55">
<path d="M71.9016 66.4795H234V12.915H71.9016V66.4795Z" fill="black"/>
</mask>
<g mask="url(#mask0)">
<path fill-rule="evenodd" clip-rule="evenodd" d="M148.673 47.7898H151.932V31.7017H148.673V47.7898Z" fill="black"/>
<path fill-rule="evenodd" clip-rule="evenodd" d="M150.331 25.3081C149.159 25.3081 148.244 26.2419 148.244 27.4392C148.244 28.6365 149.159 29.5717 150.331 29.5717C151.474 29.5717 152.39 28.6365 152.39 27.4392C152.39 26.2419 151.474 25.3081 150.331 25.3081Z" fill="black"/>
<path fill-rule="evenodd" clip-rule="evenodd" d="M159.892 27.7026H156.868C156.795 27.7026 156.736 27.7633 156.736 27.8378V31.5676C156.736 31.6421 156.676 31.7028 156.604 31.7028H155.01C154.937 31.7028 154.877 31.7635 154.877 31.8379V34.2828C154.877 34.3573 154.937 34.418 155.01 34.418H156.604C156.676 34.418 156.736 34.478 156.736 34.5532V43.3231C156.736 46.5936 158.481 47.7909 161.283 47.7909H163.724C163.797 47.7909 163.855 47.7302 163.855 47.6557V45.1522C163.855 45.0777 163.797 45.017 163.724 45.017H161.854C160.482 45.017 160.024 44.5211 160.024 43.3231V34.5532C160.024 34.478 160.083 34.418 160.157 34.418H163.724C163.797 34.418 163.855 34.3573 163.855 34.2828V31.8379C163.855 31.7635 163.797 31.7028 163.724 31.7028H160.157C160.083 31.7028 160.024 31.6421 160.024 31.5676V27.8378C160.024 27.7633 159.964 27.7026 159.892 27.7026Z" fill="black"/>
<path fill-rule="evenodd" clip-rule="evenodd" d="M181.635 27.4971H177.898C177.859 27.4971 177.822 27.5143 177.797 27.5447L170.116 36.7532V27.6322C170.116 27.5578 170.057 27.4971 169.984 27.4971H166.989C166.916 27.4971 166.857 27.5578 166.857 27.6322V47.655C166.857 47.7294 166.916 47.7901 166.989 47.7901H169.984C170.057 47.7901 170.116 47.7294 170.116 47.655V38.7092L177.769 47.7425C177.794 47.7722 177.83 47.7901 177.869 47.7901H181.774C181.889 47.7901 181.949 47.6522 181.874 47.5653L173.291 37.6581L181.735 27.7212C181.81 27.6336 181.749 27.4971 181.635 27.4971Z" fill="black"/>
<path fill-rule="evenodd" clip-rule="evenodd" d="M184.879 38.3009C185.222 35.7608 186.995 34.2421 189.197 34.2421C191.627 34.2421 193.543 35.8194 193.6 38.3009H184.879ZM189.339 31.4399C184.679 31.4399 181.477 34.6807 181.477 39.7312C181.477 44.7831 184.822 48.0536 189.339 48.0536C193.116 48.0536 195.579 45.9011 196.515 43.1831C196.544 43.0948 196.478 43.0017 196.387 43.0017H193.138C193.088 43.0017 193.044 43.0307 193.021 43.0762C192.412 44.2955 191.302 45.25 189.339 45.25C186.938 45.25 185.079 43.6445 184.85 40.9878H196.773C196.839 40.9878 196.896 40.9368 196.906 40.8706C196.978 40.3575 197.002 39.8678 197.002 39.3519C197.002 34.6221 193.829 31.4399 189.339 31.4399Z" fill="black"/>
<path fill-rule="evenodd" clip-rule="evenodd" d="M202.519 38.3009C202.863 35.7608 204.635 34.2421 206.837 34.2421C209.267 34.2421 211.184 35.8194 211.24 38.3009H202.519ZM206.98 31.4399C202.319 31.4399 199.117 34.6807 199.117 39.7312C199.117 44.7831 202.462 48.0536 206.98 48.0536C210.757 48.0536 213.22 45.9011 214.155 43.1831C214.184 43.0948 214.119 43.0017 214.028 43.0017H210.778C210.728 43.0017 210.684 43.0307 210.661 43.0762C210.052 44.2955 208.943 45.25 206.98 45.25C204.578 45.25 202.72 43.6445 202.491 40.9878H214.413C214.48 40.9878 214.537 40.9368 214.546 40.8706C214.619 40.3575 214.643 39.8671 214.643 39.3519C214.643 34.6221 211.469 31.4399 206.98 31.4399Z" fill="black"/>
<path fill-rule="evenodd" clip-rule="evenodd" d="M225.879 45.1624C223.448 45.1624 221.104 43.2058 221.104 39.7312C221.104 36.2863 223.448 34.3304 225.879 34.3304C228.338 34.3304 230.683 36.1987 230.683 39.6733C230.683 43.1479 228.338 45.1624 225.879 45.1624ZM226.594 31.4399C224.02 31.4399 222.105 32.7241 221.104 34.0676V31.8379C221.104 31.7627 221.045 31.702 220.971 31.702H217.977C217.903 31.702 217.844 31.7627 217.844 31.8379V55.3048C217.844 55.3793 217.903 55.44 217.977 55.44H220.971C221.045 55.44 221.104 55.3793 221.104 55.3048V45.4542C222.133 46.7101 223.992 48.0529 226.594 48.0529C230.74 48.0529 234 44.6369 234 39.6733C234 34.7097 230.74 31.4399 226.594 31.4399Z" fill="black"/>
<path fill-rule="evenodd" clip-rule="evenodd" d="M94.8134 45.8316C95.0133 45.9495 95.2592 45.9495 95.4591 45.8316L100.175 43.0515C100.375 42.9336 100.498 42.7156 100.498 42.4804V36.9196C100.498 36.6837 100.375 36.4665 100.175 36.3485L95.4591 33.5684C95.2592 33.4505 95.0133 33.4505 94.8134 33.5684L90.0977 36.3485C89.8978 36.4665 89.7742 36.6837 89.7742 36.9196V42.4804C89.7742 42.7156 89.8978 42.9336 90.0977 43.0515L94.8134 45.8316Z" fill="black"/>
<path fill-rule="evenodd" clip-rule="evenodd" d="M113.903 50.0009C113.903 50.4726 113.657 50.9071 113.257 51.143L104.556 56.2749C104.256 56.4521 103.887 56.4521 103.588 56.2749L99.6033 53.9258L108.466 48.7015C109.066 48.3484 109.435 47.6946 109.435 46.9877V32.4134C109.435 31.7072 109.066 31.0534 108.466 30.7003L96.0311 23.3676C95.4786 23.0414 94.7971 23.0414 94.2439 23.3662V18.0992L94.4905 17.9536C94.8903 17.7178 95.3827 17.7178 95.7825 17.9536L113.257 28.256C113.657 28.4919 113.903 28.9271 113.903 29.3988V50.0009ZM95.7825 61.4474C95.3827 61.6826 94.8903 61.6826 94.4905 61.4474L77.0162 51.1444C76.6164 50.9085 76.3699 50.474 76.3699 50.0023V29.3988C76.3699 28.9271 76.6164 28.4919 77.0162 28.256L80.8384 26.0029V46.9877C80.8384 47.6946 81.2078 48.3484 81.8069 48.7015L99.6033 59.1943L95.7825 61.4474ZM116.434 24.8601L97.0759 13.4452C95.8764 12.7383 94.3986 12.7383 93.1991 13.4452L89.7741 15.466V15.6012V20.733V26.0015L89.7727 26.0022L89.7741 31.2713L94.8133 28.3002C95.0132 28.1822 95.2591 28.1822 95.459 28.3002L104.644 33.7148C104.844 33.8328 104.967 34.0507 104.967 34.2859V45.1152C104.967 45.3511 104.844 45.5683 104.644 45.6863L95.459 51.1009C95.2591 51.2188 95.0132 51.2188 94.8133 51.1009L85.6298 45.6863C85.4298 45.5683 85.3062 45.3511 85.3062 45.1152V18.0999L73.8398 24.8601C72.6403 25.567 71.9014 26.8732 71.9014 28.2878V51.1133C71.9014 52.5272 72.6403 53.8341 73.8405 54.541L93.2004 65.9497C94.3986 66.6559 95.8757 66.6559 97.0746 65.9497L116.433 54.541C117.632 53.8341 118.371 52.5278 118.371 51.1133V28.2871C118.371 26.8732 117.633 25.567 116.434 24.8601Z" fill="black"/>
<path fill-rule="evenodd" clip-rule="evenodd" d="M130.667 51.2925H131.358L132.293 54.7816L133.304 51.2925H133.995L134.982 54.7885L135.903 51.2925H136.571L135.301 55.4478H134.603L133.623 52.1498L132.643 55.4478H131.945L130.667 51.2925Z" fill="black"/>
<path fill-rule="evenodd" clip-rule="evenodd" d="M142.596 51.8249C141.854 51.8249 141.222 52.3787 141.222 53.3567C141.222 54.3353 141.854 54.9112 142.596 54.9112C143.339 54.9112 143.977 54.3422 143.977 53.3636C143.977 52.4008 143.339 51.8249 142.596 51.8249ZM142.463 51.2256C143.22 51.2256 143.739 51.6201 143.977 52.0518V51.2932H144.661V55.4492H143.977V54.676C143.733 55.123 143.205 55.5174 142.455 55.5174C141.371 55.5174 140.532 54.6457 140.532 53.3567C140.532 52.0601 141.371 51.2256 142.463 51.2256Z" fill="black"/>
<path fill-rule="evenodd" clip-rule="evenodd" d="M149.347 55.4481H150.023V49.8369H149.347V55.4481Z" fill="black"/>
<path fill-rule="evenodd" clip-rule="evenodd" d="M154.717 55.4481H155.393V49.8369H154.717V55.4481Z" fill="black"/>
<path fill-rule="evenodd" clip-rule="evenodd" d="M160.533 53.0674H163.102C163.11 52.2564 162.516 51.8088 161.818 51.8088C161.157 51.8088 160.607 52.2564 160.533 53.0674ZM161.847 55.5172C160.688 55.5172 159.835 54.6826 159.835 53.3633C159.835 52.0508 160.659 51.2246 161.847 51.2246C163.028 51.2246 163.801 52.0743 163.801 53.2116C163.801 53.3633 163.793 53.484 163.778 53.6281H160.526C160.577 54.4702 161.157 54.933 161.847 54.933C162.457 54.933 162.842 54.6144 162.992 54.1675H163.719C163.511 54.9247 162.857 55.5172 161.847 55.5172Z" fill="black"/>
<path fill-rule="evenodd" clip-rule="evenodd" d="M168.384 51.8613H167.856V51.2923H168.384V50.2461H169.059V51.2923H170.121V51.8613H169.059V54.3111C169.059 54.7207 169.209 54.8642 169.624 54.8642H170.121V55.4476H169.513C168.792 55.4476 168.384 55.1449 168.384 54.3111V51.8613Z" fill="black"/>
</g>
</svg>
