<svg width="34" height="27" viewBox="0 0 34 27" fill="none" xmlns="http://www.w3.org/2000/svg">
<path d="M32.6555 11.9593H26.0924C25.7343 11.9593 25.3916 12.1008 25.1401 12.3507C24.8888 12.5998 24.7479 12.9357 24.7479 13.2858V13.6993C24.7479 14.4295 25.3534 15.0221 26.0961 15.0221H32.6555C33.3983 15.0221 34 14.4295 34 13.6993V13.2858C34 12.9357 33.8591 12.5998 33.6078 12.3507C33.3563 12.1008 33.0135 11.9593 32.6555 11.9593ZM17.438 0.606516C15.3963 2.19371 11.1264 4.41811 8.05622 6.56051H8.05251C8.01808 6.58288 7.98391 6.70202 7.94572 6.72064C7.58398 6.92183 7.42015 7.46964 5.44694 7.46964H1.59994C0.609497 7.46964 0 7.92411 0 8.94512V18.0102C0 19.031 0.56005 19.534 1.5999 19.534H5.46221C7.42403 19.5379 7.58398 20.0855 7.94576 20.2831C7.98015 20.3016 8.01437 20.4208 8.04858 20.4431H8.05247C11.0312 22.5855 15.3279 24.9814 17.438 26.5052C18.0743 26.9635 20.1845 27.7684 20.1845 24.9366V2.05963C20.1845 -0.775774 18.0551 0.129475 17.438 0.606516ZM23.4946 6.85852C23.845 7.45833 24.5345 7.61116 25.0372 7.19379L30.4271 2.74891C30.9337 2.33522 31.0555 1.51181 30.709 0.908365L30.511 0.569249C30.1643 -0.0305648 29.4711 -0.179758 28.9681 0.233933L23.5783 4.67885C23.0757 5.09622 22.9499 5.91596 23.2966 6.51945L23.4946 6.85856L23.4946 6.85852ZM25.0336 19.8025C24.5307 19.3888 23.8412 19.5416 23.4947 20.1378L23.2966 20.4767C22.9499 21.0767 23.0757 21.9001 23.5784 22.3175L28.9682 26.7661C29.4711 27.1796 30.1605 27.0307 30.5071 26.4309L30.7052 26.0917C31.0518 25.4919 30.9262 24.6683 30.4234 24.2512L25.0335 19.8024L25.0336 19.8025Z" fill="white"/>
</svg>
