<svg width="29" height="32" viewBox="0 0 29 32" fill="none" xmlns="http://www.w3.org/2000/svg">
<path d="M0.874542 10.93H28.0736C28.7379 10.93 28.9986 10.0302 28.4478 9.6439L14.8504 0.118519C14.6233 -0.0395062 14.329 -0.0395062 14.102 0.118519L0.504543 9.6439C-0.0504543 10.0346 0.210227 10.93 0.874542 10.93V10.93ZM28.2797 28.9053H0.672725C0.302726 28.9053 0 29.2214 0 29.6077V31.2977C0 31.684 0.302726 32 0.672725 32H28.2797C28.6497 32 28.9524 31.684 28.9524 31.2977V29.6077C28.9482 29.2214 28.6497 28.9053 28.2797 28.9053ZM6.30259 14.0247H3.32158C2.95158 14.0247 2.65306 14.3364 2.65306 14.7226V26.6667C2.65306 27.0529 2.95578 27.369 3.32578 27.369H25.593C25.963 27.369 26.2657 27.0529 26.2657 26.6667V25.2576C26.2741 25.2137 26.2909 25.1698 26.2909 25.1215V14.7226C26.2909 14.3364 25.9924 14.0247 25.6224 14.0247H22.6498C22.2798 14.0247 21.9813 14.3364 21.9813 14.7226V24.2743H19.8538V14.7182C19.8538 14.332 19.5553 14.0203 19.1853 14.0203H16.2085C15.8385 14.0203 15.5399 14.332 15.5399 14.7182V24.2743H13.4124V14.7182C13.4124 14.332 13.1139 14.0203 12.7439 14.0203H9.76712C9.39712 14.0203 9.0986 14.332 9.0986 14.7182V24.2743H6.97111V14.7182C6.97111 14.3364 6.67259 14.0247 6.30259 14.0247V14.0247Z" fill="#CFB365"/>
</svg>
