<svg width="35" height="35" viewBox="0 0 35 35" fill="none" xmlns="http://www.w3.org/2000/svg">
<path fill-rule="evenodd" clip-rule="evenodd" d="M14.0486 4.22989C14.3034 4.46299 14.5578 4.69578 14.807 4.93115C14.7856 4.98452 14.7581 5.03174 14.728 5.08344C14.7059 5.12149 14.6823 5.16197 14.6587 5.2091H13.6581C8.28442 5.26469 3.74457 9.60071 3.52221 14.9929C3.42956 17.2721 3.46662 19.5699 3.50368 21.849C3.52221 22.5532 3.33691 22.9238 2.66983 23.2573C0.50182 24.3691 -0.498801 26.9819 0.242399 29.3537C0.92801 31.5402 3.26279 33.1523 5.48639 32.967C7.91382 32.7632 9.78535 31.1326 10.2671 28.7793C10.7674 26.4445 9.67417 24.2765 7.48763 23.072C7.22821 22.9238 6.93173 22.4976 6.93173 22.2011C6.87614 19.9775 6.87614 17.7539 6.9132 15.5303C6.96879 12.5655 8.78473 10.0084 11.5828 9.06334C12.2375 8.83671 12.9435 8.75552 13.6486 8.67443C13.9812 8.63618 14.3135 8.59796 14.6402 8.5445C14.6773 8.67421 14.7143 8.78538 14.7514 8.89656L14.7514 8.89657C14.5276 9.11412 14.3018 9.32749 14.0767 9.54019C13.6306 9.9616 13.1874 10.3804 12.7687 10.8237C12.009 11.602 11.9904 12.6211 12.639 13.3067C13.3431 14.0479 14.3808 14.0664 15.1961 13.2697C16.9009 11.6205 18.5871 9.93425 20.2363 8.22949C21.0887 7.35858 21.0701 6.46914 20.2177 5.61676C18.5686 3.94906 16.9009 2.28136 15.2332 0.632193C14.4179 -0.164597 13.3802 -0.201657 12.676 0.483953C11.9904 1.1325 12.0275 2.26283 12.7872 3.04109C13.1935 3.44734 13.6215 3.83905 14.0486 4.22989ZM6.93173 27.686C6.96879 28.6681 6.22759 29.4463 5.2455 29.4649C4.24488 29.4834 3.46662 28.7422 3.44809 27.7786C3.44809 26.8336 4.28194 25.9998 5.20844 25.9998C6.13494 25.9998 6.89467 26.7595 6.93173 27.686ZM20.6269 30.3303C20.376 30.0886 20.1168 29.8389 19.8472 29.5762C20.2707 29.5345 20.6631 29.5033 21.0349 29.4737C21.6554 29.4242 22.2188 29.3794 22.7749 29.2983C27.2407 28.5941 30.9652 24.499 31.169 19.9962C31.2502 17.9189 31.2318 15.8274 31.2136 13.7465C31.211 13.4515 31.2084 13.1567 31.2061 12.8621C31.2061 12.158 31.3729 11.7874 32.0399 11.4353C34.208 10.3235 35.2086 7.71081 34.4859 5.33897C33.8003 3.1339 31.5026 1.52179 29.2604 1.70709C26.833 1.89239 24.9429 3.54156 24.4612 5.87634C23.9794 8.22965 25.0356 10.4347 27.2592 11.565C27.7225 11.7874 27.8522 12.0468 27.8522 12.5471C27.831 13.7859 27.834 15.0186 27.837 16.2522C27.8393 17.1775 27.8416 18.1034 27.8336 19.0326C27.8151 20.7559 27.2407 22.2754 26.1289 23.6095C24.6279 25.3884 21.904 26.4076 19.9398 25.8331C20.1675 25.6118 20.3952 25.3947 20.6207 25.1798C21.0558 24.765 21.4827 24.3581 21.8855 23.9431C22.7193 23.0907 22.7749 22.016 22.0337 21.3118C21.3111 20.6077 20.3104 20.6447 19.4766 21.4601C17.8274 23.0722 16.1783 24.7213 14.5661 26.3705C13.6211 27.3526 13.6582 28.205 14.6403 29.1871L19.421 33.9678C20.2734 34.8202 21.2925 34.9128 22.0337 34.2087C22.7564 33.5046 22.6823 32.3742 21.8299 31.5033C21.4465 31.1199 21.0486 30.7366 20.6269 30.3303ZM27.7966 6.96961C27.7595 5.98752 28.5192 5.20926 29.5013 5.19073C30.502 5.19073 31.2802 5.93193 31.2802 6.91402C31.2987 7.84052 30.4464 8.6929 29.5199 8.67437C28.5934 8.65584 27.8336 7.89611 27.7966 6.96961Z" fill="#CFB365"/>
</svg>
