<svg width="24" height="24" viewBox="0 0 24 24" fill="none" xmlns="http://www.w3.org/2000/svg">
<circle cx="12" cy="12" r="12" fill="#161515"/>
<path d="M9.23041 11.0154C9.35965 11.1496 9.43624 11.1496 9.57027 11.0154C10.4319 10.1381 11.3079 9.27521 12.1695 8.39792C12.3227 8.23972 12.4089 8.23493 12.562 8.39792C13.4285 9.28 14.3092 10.1525 15.1804 11.0298C15.2905 11.14 15.3528 11.1736 15.4772 11.0442C15.9559 10.5504 16.4442 10.071 16.9276 9.58202C16.9659 9.54367 16.9994 9.50052 17.0425 9.45258C17.0042 9.40465 16.9707 9.35671 16.9324 9.31836C15.4581 7.83704 13.9837 6.36051 12.5046 4.87919C12.4041 4.77852 12.3418 4.76893 12.2413 4.87919C11.9398 5.20038 11.6286 5.50719 11.3175 5.8188C10.1638 6.97413 9.01021 8.13426 7.84701 9.28959C7.71777 9.41903 7.70341 9.49573 7.84223 9.62996C8.31612 10.0806 8.77566 10.5456 9.23041 11.0154Z" fill="#FEB800"/>
<path d="M16.9228 15.2053C16.4489 14.7307 15.9703 14.2609 15.5059 13.7815C15.3815 13.652 15.3097 13.6377 15.1756 13.7767C14.3092 14.6588 13.4285 15.5265 12.562 16.4085C12.4184 16.5572 12.3418 16.5667 12.1887 16.4133C11.3175 15.5265 10.4319 14.6492 9.55591 13.7671C9.45538 13.6664 9.39316 13.6233 9.2687 13.7479C8.79001 14.2417 8.30655 14.7259 7.8135 15.2053C7.70819 15.3107 7.71298 15.3731 7.8135 15.4737C9.29263 16.9503 10.767 18.4316 12.2365 19.9177C12.3371 20.0184 12.3897 20.0327 12.4998 19.9273C13.9742 18.446 15.4533 16.9694 16.9276 15.4881C16.9659 15.4498 16.9994 15.4066 17.0329 15.3683C17.0234 15.282 16.9659 15.2484 16.9228 15.2053Z" fill="#FEB800"/>
<path d="M12.5094 10.7805C12.3945 10.6606 12.3275 10.6798 12.2222 10.7901C11.7435 11.279 11.26 11.7632 10.767 12.2426C10.6521 12.3577 10.6377 12.4248 10.7622 12.5446C11.26 13.0288 11.7483 13.5178 12.2317 14.0164C12.3323 14.117 12.3897 14.1362 12.495 14.0212C12.9881 13.513 13.4955 13.0144 13.9981 12.5159C14.0316 12.4823 14.0603 12.444 14.0843 12.4152C14.0795 12.3433 14.0268 12.3097 13.9885 12.2714C13.4955 11.7776 12.9976 11.2838 12.5094 10.7805Z" fill="#FEB800"/>
<path d="M18.3828 10.7613C18.2919 10.6702 18.2392 10.7086 18.1722 10.7805C17.6744 11.2839 17.1718 11.7872 16.6691 12.2858C16.583 12.3721 16.5782 12.4296 16.6691 12.5207C17.1718 13.0193 17.6744 13.5178 18.1722 14.026C18.2584 14.1123 18.311 14.1123 18.402 14.026C18.8998 13.5226 19.4024 13.0193 19.905 12.5207C19.9386 12.4871 19.9625 12.4488 20.0008 12.4056C19.9721 12.3673 19.9529 12.3337 19.9242 12.3098C19.4072 11.7872 18.8902 11.2791 18.3828 10.7613Z" fill="#FEB800"/>
<path d="M8.14858 12.3769C8.12944 12.3529 8.1055 12.3241 8.08157 12.2954C7.57895 11.792 7.07633 11.2934 6.5785 10.7853C6.48277 10.6894 6.42532 10.723 6.34395 10.7997C5.85569 11.2934 5.36743 11.7824 4.87439 12.2714C4.77865 12.3673 4.77387 12.4296 4.87439 12.5255C5.36743 13.0144 5.86048 13.5034 6.34395 13.9972C6.43968 14.0931 6.49713 14.0979 6.59286 13.9972C7.08112 13.5034 7.57416 13.0144 8.06242 12.5207C8.10071 12.4823 8.14858 12.4536 8.14858 12.3769Z" fill="#FEB800"/>
</svg>
