<svg width="89" height="89" viewBox="0 0 89 89" fill="none" xmlns="http://www.w3.org/2000/svg">
<path d="M76.989 32.8372C83.2374 39.0856 83.2374 49.2162 76.989 55.4646L55.4655 76.9881C49.2171 83.2365 39.0865 83.2365 32.8381 76.9881L11.3145 55.4646C5.06615 49.2162 5.06615 39.0855 11.3145 32.8372L32.8381 11.3136C39.0865 5.06525 49.2171 5.06524 55.4655 11.3136L76.989 32.8372Z" fill="black"/>
<path d="M35.976 40.7422C36.2934 41.0662 36.4815 41.0662 36.8107 40.7422C38.9267 38.625 41.078 36.5425 43.194 34.4253C43.5702 34.0436 43.7818 34.032 44.1579 34.4253C46.2857 36.5541 48.4487 38.6597 50.5883 40.7769C50.8586 41.043 51.0115 41.124 51.3171 40.8116C52.4927 39.62 53.6917 38.4631 54.8791 37.283C54.9731 37.1904 55.0554 37.0863 55.1612 36.9706C55.0671 36.8549 54.9849 36.7392 54.8908 36.6467C51.2701 33.0717 47.6494 29.5084 44.0169 25.9334C43.77 25.6905 43.6172 25.6673 43.3703 25.9334C42.6297 26.7086 41.8656 27.449 41.1015 28.201C38.2684 30.9892 35.4353 33.789 32.5787 36.5772C32.2613 36.8896 32.226 37.0747 32.5669 37.3987C33.7307 38.4862 34.8593 39.6084 35.976 40.7422Z" fill="#FEB800"/>
<path d="M54.8673 50.8538C53.7035 49.7085 52.5279 48.5747 51.3876 47.4177C51.082 47.1054 50.9056 47.0706 50.5765 47.4062C48.4487 49.5349 46.2857 51.629 44.1579 53.7577C43.8053 54.1164 43.6172 54.1395 43.241 53.7693C41.1015 51.629 38.9267 49.5118 36.7754 47.383C36.5285 47.1401 36.3757 47.0359 36.0701 47.3367C34.8945 48.5284 33.7072 49.6969 32.4964 50.8538C32.2377 51.1084 32.2495 51.2588 32.4964 51.5017C36.1288 55.0651 39.7496 58.64 43.3585 62.2265C43.6054 62.4695 43.7347 62.5042 44.0051 62.2497C47.6258 58.6747 51.2583 55.1114 54.879 51.5364C54.9731 51.4439 55.0554 51.3397 55.1377 51.2472C55.1142 51.0389 54.9731 50.958 54.8673 50.8538Z" fill="#FEB800"/>
<path d="M44.0286 40.1753C43.7465 39.886 43.5819 39.9323 43.3233 40.1984C42.1477 41.3785 40.9604 42.547 39.7496 43.7039C39.4674 43.9816 39.4322 44.1436 39.7378 44.4328C40.9604 45.6013 42.1595 46.7814 43.3468 47.9846C43.5937 48.2276 43.7347 48.2738 43.9934 47.9962C45.2042 46.7698 46.4503 45.5666 47.6846 44.3634C47.7669 44.2824 47.8374 44.1898 47.8962 44.1204C47.8845 43.9469 47.7552 43.8659 47.6611 43.7733C46.4503 42.5817 45.2277 41.3901 44.0286 40.1753Z" fill="#FEB800"/>
<path d="M58.4528 40.129C58.2294 39.9092 58.1001 40.0018 57.9355 40.1753C56.7129 41.3901 55.4786 42.6049 54.2443 43.8081C54.0327 44.0163 54.0209 44.1552 54.2443 44.375C55.4786 45.5782 56.7129 46.7814 57.9355 48.0078C58.1471 48.216 58.2764 48.216 58.4998 48.0078C59.7224 46.793 60.9567 45.5782 62.1911 44.375C62.2733 44.294 62.3321 44.2014 62.4262 44.0973C62.3556 44.0048 62.3086 43.9238 62.2381 43.8659C60.9685 42.6049 59.6989 41.3785 58.4528 40.129Z" fill="#FEB800"/>
<path d="M33.3193 44.0279C33.2722 43.97 33.2135 43.9006 33.1547 43.8312C31.9203 42.6164 30.686 41.4132 29.4634 40.1868C29.2283 39.9555 29.0872 40.0364 28.8874 40.2216C27.6883 41.4132 26.4893 42.5933 25.2784 43.7734C25.0433 44.0047 25.0316 44.1551 25.2784 44.3865C26.4893 45.5666 27.7001 46.7467 28.8874 47.9383C29.1225 48.1697 29.2636 48.1813 29.4987 47.9383C30.6978 46.7467 31.9086 45.5666 33.1077 44.375C33.2017 44.2824 33.3193 44.213 33.3193 44.0279Z" fill="#FEB800"/>
</svg>
