<svg width="305" height="80" viewBox="0 0 305 80" fill="none" xmlns="http://www.w3.org/2000/svg">
<path d="M83.6826 40.9322C78.7295 43.6768 73.7551 46.3999 68.8235 49.1659C68.2017 49.5089 67.7728 49.4875 67.1725 49.1444C62.5411 46.4642 57.9097 43.8269 53.2568 41.1895C52.7208 40.8894 52.5063 40.5892 52.5063 39.9459C52.5278 34.3496 52.5278 28.7319 52.5063 23.1356C52.5063 22.621 52.6136 22.3209 53.1282 22.0636C58.0597 19.5978 62.9913 17.0891 67.9015 14.5804C68.459 14.3017 68.8878 14.2588 69.4667 14.5804C74.0124 17.0676 78.6009 19.5334 83.168 22.0207C83.4467 22.1708 83.9184 22.1708 83.8541 22.6854C83.6826 23.007 83.3609 23.1571 83.0608 23.3715C82.2031 23.8218 81.4098 24.4221 80.4449 24.658C80.1661 24.658 79.9303 24.5722 79.673 24.465C76.2637 22.6854 72.8974 20.8199 69.4882 19.0403C68.8664 18.7187 68.3089 18.6543 67.6871 19.0188C64.4708 20.8414 61.083 22.3637 57.8024 24.0576C57.4594 24.2292 57.0949 24.4221 56.7947 24.658C56.4945 24.8939 56.323 25.194 56.323 25.58C56.3444 29.7826 56.2158 34.0066 56.3873 38.2092C56.5588 38.7023 56.9877 38.8738 57.3951 39.1097C60.8257 41.0823 64.2993 43.0121 67.7085 44.9847C67.9229 45.1134 68.1373 45.1134 68.3732 44.9847C73.0689 42.4332 77.7218 39.7315 82.4175 37.18C82.782 36.987 83.1251 36.6439 83.5968 36.8154C83.9399 38.1877 83.8112 39.56 83.6826 40.9322Z" fill="black"/>
<path d="M209.717 40.9322C204.764 43.6768 199.811 46.3999 194.879 49.1659C194.279 49.5089 193.85 49.5089 193.228 49.1659C188.618 46.4856 183.987 43.8269 179.334 41.211C178.734 40.8679 178.583 40.5034 178.583 39.8816C178.605 34.3496 178.605 28.8177 178.583 23.2857C178.583 22.621 178.798 22.2994 179.398 21.9992C184.308 19.5549 189.197 17.0676 194.064 14.559C194.515 14.3445 194.836 14.2373 195.329 14.4946C200.111 17.1105 204.892 19.6835 209.695 22.278C209.781 22.3209 209.845 22.4066 209.931 22.4709C209.781 22.8783 209.481 23.1356 209.116 23.3286C208.28 23.8003 207.465 24.3578 206.522 24.6151C206.243 24.6366 206.007 24.5508 205.75 24.4436C202.341 22.7068 199.017 20.8414 195.63 19.0617C194.986 18.7187 194.407 18.6758 193.807 19.0188C190.205 21.0129 186.431 22.6425 182.85 24.658C182.55 24.8939 182.379 25.194 182.379 25.58C182.4 29.7826 182.271 34.0066 182.443 38.2091C182.615 38.7023 183.043 38.8738 183.451 39.1097C186.881 41.0823 190.334 43.0121 193.764 44.9847C193.979 45.1134 194.193 45.1134 194.429 44.9847C199.103 42.3903 203.799 39.7958 208.473 37.1799C208.838 36.9655 209.181 36.6439 209.653 36.8154C209.996 38.1877 209.888 39.56 209.717 40.9322Z" fill="#010101"/>
<path d="M98.2627 42.433C98.1983 42.4116 98.1126 42.4116 98.0697 42.3687C97.0834 41.8112 95.754 41.4467 95.2179 40.6105C94.7248 39.8171 95.0464 38.4877 95.0464 37.3728C95.0464 32.6985 95.0464 28.0456 95.025 23.3713C95.025 22.771 95.1751 22.4065 95.754 22.1706C96.6117 21.8275 97.4264 21.3773 98.2412 20.9913C98.6486 21.3987 98.52 21.9133 98.5414 22.4065C98.6272 24.2933 98.3913 26.1802 98.6701 28.0456C99.1203 28.8175 99.978 29.0105 100.664 29.4179C103.516 31.0475 106.368 32.6556 109.241 34.2423C109.905 34.6282 110.463 34.6282 111.128 34.2637C114.43 32.4197 117.732 30.5972 121.055 28.7747C121.698 28.4101 121.977 27.9813 121.977 27.2523C121.999 25.2153 121.827 23.1784 122.084 21.1629C122.17 20.9913 122.277 20.8841 122.47 20.9056C122.878 21.12 123.264 21.4202 123.693 21.5274C125.365 21.9776 125.665 23.0712 125.622 24.6793C125.515 29.6538 125.558 34.6497 125.601 39.6241C125.601 40.3103 125.451 40.7391 124.786 41.0393C123.907 41.4253 123.092 41.897 122.234 42.3472C122.084 42.24 122.02 42.0685 121.977 41.897C121.87 39.2596 121.956 36.6223 121.934 33.985C121.913 32.7628 121.913 32.7414 120.862 33.2988C117.667 35.0142 114.473 36.7724 111.299 38.5092C111.042 38.6378 110.806 38.8094 110.527 38.8951C110.313 38.9595 110.077 38.9595 109.863 38.8951C106.968 37.3942 104.181 35.7003 101.286 34.178C100.428 33.7277 99.6993 32.9772 98.6486 32.9987C98.3913 33.3632 98.4985 33.7706 98.4985 34.1351C98.4771 36.4293 98.4985 38.745 98.4985 41.0393C98.5414 41.5968 98.6486 42.0685 98.2627 42.433Z" fill="black"/>
<path d="M188.876 61.1742C188.404 62.6536 187.954 63.8758 187.632 65.1409C187.439 65.9342 186.903 65.827 186.345 65.8699C185.767 65.9128 185.574 65.6984 185.423 65.1409C184.952 63.2326 184.394 61.3671 183.901 59.4803C183.837 59.2015 183.451 58.6655 184.008 58.644C184.501 58.6226 185.338 58.108 185.574 59.1372C185.852 60.3379 186.195 61.5387 186.71 62.7608C187.096 61.5815 187.525 60.4237 187.846 59.2444C188.018 58.6226 188.361 58.5797 188.854 58.6012C189.347 58.6226 189.798 58.5368 189.991 59.223C190.334 60.4451 190.762 61.6673 191.234 63.1468C191.534 61.9461 191.77 60.9812 192.028 60.0163C192.413 58.5368 192.413 58.5368 194.107 58.6655C193.486 60.9383 192.864 63.1897 192.263 65.4411C192.092 66.0843 191.62 65.8484 191.256 65.8913C190.784 65.9342 190.398 65.9342 190.205 65.291C189.84 63.9401 189.369 62.6751 188.876 61.1742Z" fill="#020202"/>
<path d="M101.694 62.2232C101.694 63.231 101.651 64.2173 101.715 65.225C101.758 65.9541 101.35 65.8468 100.922 65.8468C100.493 65.8254 99.9139 65.9969 100.021 65.2036C100.043 64.9677 100.021 64.7104 100.021 64.4531C100.021 62.9737 100.021 62.9737 98.5845 62.9737C97.1908 62.9737 97.1265 62.9737 97.2122 64.7962C97.2551 65.7825 96.8906 65.9112 96.0758 65.8468C95.5827 65.804 95.4969 65.5895 95.5183 65.1822C95.5398 63.1881 95.5612 61.194 95.5183 59.1785C95.4969 58.4066 95.9901 58.5567 96.4403 58.5352C96.9121 58.5138 97.3194 58.5138 97.2122 59.1785C97.1908 59.35 97.2122 59.543 97.2122 59.7145C97.2122 61.387 97.2122 61.3227 98.8418 61.4084C99.8281 61.4513 100.171 61.1511 100.021 60.1862C99.9568 59.8432 100.043 59.4787 99.9997 59.1142C99.9353 58.4066 100.45 58.5352 100.857 58.5352C101.265 58.5352 101.736 58.3851 101.715 59.1142C101.651 60.1648 101.694 61.194 101.694 62.2232Z" fill="#020202"/>
<path d="M80.7236 66.0186C79.0726 66.0186 77.7218 65.0966 77.1857 63.5957C76.6497 62.1162 77.0356 60.3794 78.1506 59.3717C79.3085 58.321 81.1739 58.1066 82.5462 58.8356C82.9964 59.0715 83.4038 59.3717 83.6397 59.8219C83.8112 60.165 84.433 60.6153 83.8112 60.9369C83.3609 61.1728 82.7606 61.6874 82.2031 60.7868C81.5813 59.7576 80.1876 59.7791 79.3085 60.6153C78.4508 61.4301 78.4722 62.9739 79.3513 63.7887C80.2305 64.582 81.6456 64.5606 82.246 63.5742C82.782 62.6737 83.3395 63.2312 83.8755 63.3384C84.2829 63.4242 84.1114 63.7672 84.0042 64.0245C83.511 65.2253 82.2031 66.0186 80.7236 66.0186Z" fill="#020202"/>
<path d="M134.907 66.0204C133.041 66.0204 131.583 64.884 131.197 63.1044C130.79 61.2604 131.626 59.5022 133.256 58.7517C134.778 58.0441 136.772 58.473 137.716 59.738C138.423 60.6815 138.273 61.0674 137.137 61.2818C136.772 61.3462 136.665 61.1961 136.472 60.9388C135.657 59.8667 134.457 59.7166 133.513 60.5528C132.613 61.3462 132.591 62.9972 133.47 63.812C134.349 64.6053 135.764 64.541 136.451 63.4903C137.03 62.6112 137.651 63.2116 138.08 63.426C138.616 63.7047 138.037 64.1765 137.866 64.4552C137.222 65.5702 136.15 65.9776 134.907 66.0204Z" fill="#030303"/>
<path d="M170.95 66.0194C169.707 66.0194 168.527 65.3548 168.184 64.3684C168.099 64.154 167.691 63.7037 168.249 63.618C168.678 63.5322 169.214 62.9104 169.6 63.6609C169.943 64.3256 170.457 64.5829 171.165 64.4971C171.551 64.4542 171.872 64.2827 171.937 63.8753C172.001 63.4464 171.679 63.232 171.315 63.1248C170.8 62.9962 170.264 62.9533 169.75 62.7818C168.913 62.503 168.335 61.9455 168.249 61.0235C168.163 60.0372 168.549 59.2868 169.385 58.7722C170.65 58.0217 172.537 58.4076 173.202 59.5441C173.352 59.7799 173.716 60.1873 173.33 60.3803C172.923 60.5733 172.387 60.9807 171.915 60.5089C171.658 60.2516 171.444 59.9729 171.058 59.93C170.522 59.8657 169.986 59.93 169.878 60.5733C169.793 61.1093 170.243 61.2594 170.715 61.3452C171.208 61.4309 171.701 61.5381 172.151 61.7097C173.223 62.1171 173.781 63.0605 173.566 64.0468C173.395 65.2475 172.366 66.0194 170.95 66.0194Z" fill="#020202"/>
<path d="M239.414 29.3332C241.558 28.1539 243.681 26.9532 245.803 25.7524C243.681 26.9532 241.537 28.1539 239.414 29.3332Z" fill="black"/>
<path d="M251.978 31.6271C251.978 28.7968 251.957 25.9879 252 23.1576C252 22.5358 251.807 22.2142 251.271 21.9354C246.618 19.4482 241.965 16.961 237.355 14.4523C236.926 14.2164 236.605 14.2379 236.197 14.4309C231.266 16.9395 226.313 19.4697 221.36 21.9569C220.909 22.1927 220.652 22.4072 220.674 22.9861C220.695 28.7325 220.695 34.4788 220.674 40.2252C220.674 40.7184 220.824 40.9542 221.253 41.2115C226.034 43.8917 230.794 46.572 235.554 49.295C236.069 49.5738 236.433 49.5738 236.905 49.295C241.708 46.5934 246.511 43.9132 251.357 41.2544C251.893 40.9542 252 40.6112 251.978 40.0751C251.957 37.2663 251.978 34.436 251.978 31.6271ZM247.283 38.7672C243.766 40.6969 240.271 42.6481 236.755 44.5779C236.155 44.535 236.262 44.0418 236.24 43.6988C236.197 39.8178 236.197 35.9154 236.24 32.0345C236.24 31.4341 236.498 31.0053 236.948 30.6837C236.412 30.9624 235.962 30.941 235.425 30.6408C234.804 30.2977 234.203 29.9546 233.582 29.6116C234.139 29.9332 234.696 30.2548 235.254 30.555C235.876 30.8981 236.197 31.4127 236.197 32.0988C236.219 35.9583 236.219 39.7964 236.197 43.6559C236.197 43.9989 236.283 44.4921 235.704 44.5564C232.145 42.5409 228.564 40.5254 225.005 38.5099C224.812 38.2955 224.876 38.0382 224.876 37.8023C224.876 33.8356 224.876 29.8903 224.876 25.9236C224.876 24.8515 224.983 24.7872 225.97 25.3018C226.313 25.4948 226.677 25.6877 227.02 25.8807C226.677 25.6877 226.356 25.5162 226.034 25.3232C225.755 25.1731 225.305 25.1088 225.391 24.5942C229.014 22.7502 232.638 20.9062 236.262 19.0194C236.691 18.805 236.991 18.9122 237.334 19.1051C240.636 20.8848 243.938 22.6859 247.261 24.4656C247.261 24.7657 247.154 24.9587 246.983 25.1088C247.261 24.9587 247.583 24.8301 247.905 25.0659C247.905 29.3114 247.905 33.5354 247.947 37.7809C247.926 38.3169 247.69 38.5528 247.283 38.7672Z" fill="black"/>
<path d="M225.369 24.637C227.706 25.9878 230.044 27.3386 232.381 28.6894C233.453 29.3112 234.568 29.8902 235.64 30.512C236.004 30.7264 236.305 30.7907 236.712 30.5763C240.078 28.668 243.466 26.7811 246.854 24.8728C247.004 24.787 247.111 24.637 247.218 24.5083C247.476 24.6584 247.84 24.7013 247.862 25.1087C246.125 25.7734 244.602 26.8454 242.973 27.7031C241.107 28.668 239.306 29.7401 237.462 30.7264C236.798 31.0909 236.497 31.4983 236.497 32.3131C236.54 36.0439 236.519 39.7962 236.519 43.5271C236.519 43.8916 236.369 44.3204 236.733 44.6206C236.369 44.9637 236.004 44.9637 235.661 44.5992C236.026 44.299 235.854 43.8702 235.876 43.5056C235.897 39.9678 235.833 36.4513 235.919 32.9134C235.94 31.7985 235.683 31.1338 234.632 30.5763C231.437 28.8824 228.307 27.017 224.983 25.1087C224.983 29.7186 224.983 34.1356 224.983 38.5526C224.662 38.3811 224.747 38.0594 224.747 37.8021C224.747 33.7711 224.747 29.7401 224.747 25.709C224.747 25.173 224.726 24.7227 225.369 24.637Z" fill="#BDBDBD"/>
<path d="M155.577 29.2255C157.506 28.1534 159.436 27.0814 161.366 26.0093C159.415 27.0814 157.506 28.1534 155.577 29.2255Z" fill="black"/>
<path d="M167.97 31.628C167.97 28.8405 167.949 26.0531 167.992 23.2657C168.013 22.5367 167.756 22.1936 167.155 21.872C162.588 19.4491 158.043 17.0262 153.518 14.5604C152.939 14.2602 152.553 14.2387 151.975 14.5389C147.107 17.0476 142.219 19.5134 137.33 21.9577C136.815 22.215 136.622 22.4938 136.622 23.0727C136.644 28.7548 136.644 34.4154 136.622 40.0974C136.622 40.6763 136.794 40.9551 137.308 41.2338C142.026 43.8712 146.743 46.5299 151.417 49.2316C152.039 49.5961 152.489 49.5103 153.068 49.1887C157.785 46.5299 162.502 43.914 167.241 41.2982C167.841 40.9765 167.992 40.5906 167.97 39.9688C167.949 37.1813 167.97 34.3939 167.97 31.628ZM163.339 38.7251C159.801 40.6763 156.263 42.6275 152.704 44.5787C152.103 44.5358 152.21 44.0427 152.189 43.6996C152.146 39.8187 152.146 35.9163 152.189 32.0353C152.189 31.435 152.468 31.0061 152.897 30.6845C152.403 30.9418 151.953 30.9633 151.417 30.6631C151.889 31.0061 152.146 31.4779 152.146 32.0997C152.168 35.9806 152.168 39.8616 152.146 43.7425C152.146 44.0641 152.103 44.3858 151.846 44.6216C148.201 42.5847 144.577 40.5263 140.932 38.4893C140.739 38.2749 140.803 38.0176 140.803 37.7817C140.803 33.8364 140.803 29.8697 140.803 25.9245C140.803 25.0454 140.996 24.8309 141.64 25.1311C141.49 25.0025 141.425 24.7881 141.554 24.4664C145.027 22.6868 148.501 20.9285 151.975 19.1274C152.468 18.8701 152.854 18.8701 153.347 19.1489C156.606 20.95 159.887 22.7082 163.167 24.4664C163.21 24.8524 163.038 25.0454 162.803 25.1954H162.824C163.146 25.0239 163.446 24.8309 163.81 25.0882C163.81 29.3337 163.832 33.5577 163.853 37.8032C163.875 38.2534 163.746 38.5107 163.339 38.7251Z" fill="black"/>
<path d="M141.575 24.4863C141.554 24.8294 141.79 24.958 142.068 25.1081C145.285 26.9307 148.501 28.7532 151.717 30.5758C152.017 30.7473 152.275 30.7902 152.596 30.6187C156.005 28.7103 159.436 26.802 162.845 24.8937C162.995 24.808 163.081 24.6364 163.188 24.5078C163.446 24.6579 163.853 24.6579 163.832 25.1081C161.559 26.1159 159.479 27.4882 157.27 28.646C155.92 29.3536 154.612 30.1255 153.261 30.8545C152.725 31.1333 152.468 31.4763 152.489 32.0981C152.51 36.022 152.51 39.9243 152.51 43.8482C152.51 44.1269 152.446 44.4271 152.746 44.6201C152.467 44.9203 152.189 44.9846 151.867 44.6844C151.867 40.5033 151.867 36.3436 151.889 32.1625C151.889 31.6693 151.846 31.2405 151.353 30.9832C147.943 29.0749 144.534 27.1451 140.953 25.1296C140.953 29.6967 140.953 34.1351 140.953 38.5735C140.567 38.3805 140.717 38.016 140.717 37.7159C140.717 33.7706 140.717 29.8039 140.696 25.8586C140.696 25.1081 140.868 24.6364 141.575 24.4863Z" fill="#BBBBBB"/>
<path d="M83.9396 39.989C83.9182 34.2212 83.8967 28.4534 83.8753 22.6855C83.5537 22.7928 83.2535 22.8785 83.0391 23.1573C83.4465 23.5003 83.2749 23.9506 83.2749 24.358C83.2964 28.5606 83.2964 32.7417 83.3178 36.9443C83.7252 36.8156 83.811 37.0515 83.7895 37.3731C83.7466 38.5738 83.8967 39.7531 83.7038 40.9539C84.0897 40.718 83.9396 40.3106 83.9396 39.989Z" fill="#CBCBCB"/>
<path d="M56.9019 24.2725C57.7595 25.2588 59.0032 25.6876 60.0752 26.3309C62.5196 27.746 64.9854 29.0754 67.4297 30.4691C67.8157 30.6835 68.1373 30.8122 68.609 30.5549C72.3185 28.4536 76.0493 26.3523 79.7802 24.2725C80.016 24.3368 80.2304 24.4226 80.4663 24.4869C76.6926 26.6096 72.9188 28.7323 69.1236 30.8122C68.459 31.1767 68.2445 31.5841 68.2445 32.3131C68.266 36.6229 68.2445 40.9327 68.2231 45.2424C68.073 45.5212 67.9443 45.4569 67.7943 45.2424C67.7943 41.0399 67.7728 36.8159 67.8157 32.6133C67.8371 31.6913 67.6013 31.1552 66.7436 30.6835C63.5488 28.9468 60.4183 27.1028 57.2664 25.3017C56.9876 25.1516 56.7089 25.0444 56.2157 24.8085C56.2157 29.5042 56.2157 34.0499 56.2157 38.617C55.9584 38.3382 56.0871 38.0166 56.0871 37.695C56.0657 33.6425 56.0871 29.5686 56.0657 25.5161C56.0442 24.8299 56.2801 24.4654 56.9019 24.2725Z" fill="#B7B7B7"/>
<path d="M209.996 39.7751C209.996 34.0073 209.953 28.2395 209.931 22.4717C209.653 22.6861 209.352 22.9005 209.074 23.1364C209.503 23.458 209.31 23.9297 209.31 24.3371C209.331 28.5397 209.331 32.7423 209.352 36.9448C209.653 36.8591 209.824 36.9234 209.824 37.2664C209.803 38.4886 209.953 39.7322 209.738 40.9544C210.21 40.6542 209.996 40.1611 209.996 39.7751Z" fill="#CBCBCB"/>
<path d="M182.958 24.2725C183.601 25.1945 184.673 25.4946 185.552 26.0092C188.082 27.5102 190.698 28.9039 193.25 30.3833C193.893 30.7479 194.45 30.6835 195.051 30.3619C198.653 28.3464 202.255 26.3094 205.836 24.2939C206.072 24.3582 206.286 24.444 206.522 24.5083C202.813 26.5667 199.082 28.6466 195.351 30.705C194.643 31.0909 194.279 31.5412 194.279 32.4417C194.322 36.7086 194.279 40.9755 194.279 45.2639C194.15 45.5212 194 45.4997 193.85 45.2853C193.85 40.9755 193.85 36.6443 193.85 32.3345C193.85 31.8414 193.936 31.3697 193.357 31.048C189.733 29.0325 186.131 26.9741 182.272 24.7871C182.272 29.5471 182.272 34.0928 182.272 38.6384C181.993 38.3811 182.121 38.038 182.121 37.7378C182.121 33.7068 182.121 29.6972 182.1 25.6662C182.121 24.9372 182.229 24.444 182.958 24.2725Z" fill="#B6B6B6"/>
<path d="M98.4561 22.2995C98.4346 21.6134 98.6276 21.2275 99.2923 20.9058C102.766 19.1905 106.239 17.4323 109.691 15.6097C110.442 15.2023 111.042 15.2238 111.771 15.6312C115.245 17.518 118.74 19.3835 122.235 21.2489C122.321 21.1631 122.406 21.0559 122.492 20.9702C118.804 18.9761 115.095 17.0034 111.428 14.9879C110.957 14.7306 110.613 14.7092 110.142 14.945C108.727 15.6955 107.269 16.3816 105.832 17.1107C103.302 18.3972 100.772 19.7265 98.2416 21.013C98.2416 23.2001 98.2416 25.3657 98.2631 27.5528C98.2631 27.8744 98.0487 28.2603 98.4775 28.5176C98.4775 26.4378 98.4989 24.3579 98.4561 22.2995Z" fill="#BBBBBB"/>
<path d="M122.235 42.0059C118.568 44.0643 114.902 46.1013 111.235 48.1597C110.613 48.5028 110.442 48.3741 110.463 47.688C110.485 44.729 110.485 41.7701 110.485 38.8111C110.27 38.7897 110.077 38.7897 109.863 38.7682C109.863 41.7058 109.841 44.6218 109.884 47.5593C109.906 48.5028 109.627 48.4599 108.919 48.0525C105.81 46.2514 102.658 44.4932 99.5064 42.735C98.7774 42.3276 98.4129 41.9202 98.4343 40.9982C98.4987 38.5324 98.4558 36.0666 98.4772 33.6008C98.4772 33.2363 98.3057 32.8074 98.7345 32.5287C97.9412 32.1428 98.2842 32.8503 98.2842 33.0648C98.2628 36.1952 98.2628 39.3043 98.2628 42.4348C99.1633 42.9494 100.042 43.4425 100.943 43.9571C103.752 45.5653 106.582 47.1519 109.391 48.7601C109.82 48.9959 110.206 49.2318 110.763 48.9102C114.58 46.7231 118.439 44.5789 122.277 42.4133C122.256 42.2847 122.256 42.1346 122.235 42.0059Z" fill="#BCBCBC"/>
<path d="M152.811 58.407C150.581 58.3855 149.015 59.9722 149.015 62.245C149.015 64.4535 150.581 66.0188 152.768 66.0188C154.912 66.0188 156.563 64.3677 156.563 62.2236C156.563 60.058 154.998 58.4498 152.811 58.407ZM152.768 64.3463C151.524 64.3463 150.709 63.4243 150.752 62.1164C150.774 60.8942 151.696 59.9936 152.832 60.0365C153.99 60.0794 154.826 61.0228 154.805 62.245C154.805 63.4672 153.947 64.3463 152.768 64.3463Z" fill="#020202"/>
<path d="M116.724 58.4075C114.559 58.3647 112.865 60.0371 112.865 62.2242C112.865 64.3683 114.494 65.9979 116.638 66.0193C118.783 66.0408 120.412 64.4112 120.434 62.2456C120.455 60.0586 118.911 58.4504 116.724 58.4075ZM118.718 62.3314C118.654 63.575 117.775 64.3898 116.553 64.3254C115.395 64.2611 114.516 63.2748 114.58 62.0955C114.644 60.8733 115.588 59.9728 116.724 60.0157C117.925 60.08 118.783 61.0663 118.718 62.3314Z" fill="#020202"/>
<path d="M208.109 59.0943C207.937 58.6226 207.658 58.4725 207.23 58.5583C206.758 58.6655 206.136 58.2152 205.836 58.9657C204.978 61.2171 204.142 63.4684 203.263 65.7413C204.292 65.9557 205.214 66.0414 205.407 64.7121C205.45 64.4119 205.664 64.3261 205.943 64.3261C206.544 64.3261 207.165 64.3475 207.766 64.3261C208.109 64.3047 208.366 64.4119 208.409 64.7549C208.602 66.2559 209.631 65.8056 210.617 65.827C209.738 63.4899 208.881 61.3028 208.109 59.0943ZM206.179 62.8037C206.222 62.0533 206.629 61.4315 206.865 60.5309C207.23 61.41 207.53 62.0533 207.616 62.7609C207.165 62.911 206.715 62.8466 206.179 62.8037Z" fill="#020202"/>
<path d="M225.798 58.6642C224.919 58.4498 224.019 58.6213 223.14 58.557C222.539 58.5141 222.303 58.6856 222.346 59.3075C222.389 60.2294 222.368 61.1514 222.368 62.0949C222.368 63.1241 222.389 64.1747 222.368 65.2039C222.346 65.7185 222.496 65.8472 223.011 65.8901C223.783 65.9329 224.083 65.74 224.04 64.9037C223.976 63.4028 224.04 63.4028 225.477 63.2527C226.656 63.1241 227.492 62.3093 227.578 61.2158C227.664 59.8435 227.063 58.9858 225.798 58.6642ZM224.748 61.7947C223.89 61.8805 224.083 61.323 224.083 60.7869C224.062 60.401 223.997 59.9507 224.726 60.015C225.348 60.0794 225.884 60.1866 225.906 60.9156C225.927 61.666 225.348 61.7304 224.748 61.7947Z" fill="#020202"/>
</svg>
