<svg width="35" height="36" viewBox="0 0 35 36" fill="none" xmlns="http://www.w3.org/2000/svg">
<path fill-rule="evenodd" clip-rule="evenodd" d="M8.56641 0.986328C6.47346 0.986328 4.77943 2.67657 4.77943 4.76007V17.8037C0.608658 17.8037 -0.253478 20.0687 2.84908 22.8612L15.1912 33.9744C16.7246 35.3546 19.2448 35.3659 20.7913 33.9744L33.1335 22.863C36.2474 20.0592 35.372 17.8056 31.2032 17.8056V4.76007C31.2032 2.66144 29.5072 0.986328 27.4162 0.986328H8.56641ZM19.1252 25.0921H16.7315L16.7652 23.1064C13.0145 22.7574 10.6461 20.8215 10.6292 16.983H15.0795C15.1385 18.1628 15.7538 18.9189 16.8242 19.2263L16.8748 16.1106L15.9898 15.9195C12.9302 15.2714 11.0591 13.7925 11.0675 11.1338C11.0422 8.16765 13.4781 6.09052 17.0349 5.75818L17.0687 3.8223H19.4624L19.4287 5.79972C22.8001 6.24008 24.8398 8.3089 24.8567 11.2667H20.3727C20.3137 10.5522 19.9934 10.0288 19.3697 9.74627L19.3191 12.6459L19.6984 12.729C23.5081 13.535 25.0758 15.3545 25.0927 17.9468C25.0758 21.0209 22.8844 22.8405 19.159 23.123L19.1252 25.0921ZM19.2601 16.742L19.218 19.2097C19.926 18.977 20.2968 18.5201 20.3052 17.9468C20.2968 17.44 20.0018 17.0578 19.2601 16.742ZM15.9561 10.8015C15.9308 11.3415 16.2427 11.732 16.9422 12.0311L16.9759 9.63826C16.2764 9.84597 15.9645 10.2697 15.9561 10.8015Z" fill="#CFB365"/>
</svg>
