<svg width="305" height="80" viewBox="0 0 305 80" fill="none" xmlns="http://www.w3.org/2000/svg">
<path fill-rule="evenodd" clip-rule="evenodd" d="M79.4941 43.2705C78.8733 43.6629 78.1423 43.7115 77.5867 43.3981C76.8808 42.9996 76.4927 42.0663 76.4927 40.7684V36.885C76.4927 35.0097 75.7513 33.6753 74.5116 33.315C72.4106 32.703 70.8305 35.2736 70.2366 36.2391L66.5312 42.2469V34.9038C66.4895 33.2143 65.9409 32.2038 64.899 31.899C64.2097 31.6976 63.1783 31.7783 62.1764 33.3116L53.8748 46.6416C52.7635 44.5318 52.1841 42.1824 52.1871 39.7978C52.1871 31.7679 58.6221 25.2357 66.5312 25.2357C74.4404 25.2357 80.8745 31.7679 80.8745 39.7978C80.8745 39.8116 80.8779 39.8238 80.8788 39.8368C80.8788 39.8507 80.8762 39.8629 80.8771 39.8768C80.9517 41.4317 80.4482 42.6688 79.4941 43.2714V43.2705ZM84.0616 39.7986V39.7978V39.7578L84.0607 39.7179C84.0164 29.9387 76.1707 22 66.5303 22C56.8649 22 49 29.9838 49 39.7978C49 49.6108 56.8649 57.5955 66.5312 57.5955C70.9668 57.5955 75.2 55.9095 78.4496 52.8491C79.0956 52.2414 79.1338 51.2178 78.5347 50.5632C78.3937 50.4077 78.2231 50.282 78.0329 50.1932C77.8427 50.1045 77.6367 50.0547 77.4269 50.0466C77.2172 50.0385 77.008 50.0724 76.8115 50.1462C76.615 50.22 76.4352 50.3322 76.2826 50.4764C73.6487 52.9707 70.1588 54.3605 66.5312 54.3598C62.2962 54.3598 58.4858 52.4854 55.8578 49.5127L63.3441 37.4919V43.0335C63.3441 45.6953 64.3764 46.5557 65.242 46.8075C66.1084 47.0592 67.4324 46.8873 68.8224 44.6301L72.9401 37.9546C73.0721 37.7393 73.1937 37.5535 73.3048 37.3929V40.7684C73.3048 43.2566 74.3015 45.2465 76.0387 46.2266C77.6049 47.1105 79.5739 47.0306 81.1783 46.0183C83.1231 44.7898 84.171 42.5264 84.0616 39.7986V39.7986ZM108.469 33.7179C108.89 33.974 109.255 34.5435 109.255 35.0566C109.255 35.8822 108.553 36.5655 107.767 36.5655C107.571 36.5655 107.375 36.5091 107.206 36.4518C106.28 35.7685 105.102 35.3127 103.867 35.3127C100.95 35.3127 98.9301 37.7046 98.9301 40.6659C98.9301 43.6282 100.95 45.9914 103.867 45.9914C105.326 45.9914 106.617 45.3932 107.599 44.4825C107.853 44.3001 108.156 44.2007 108.469 44.1977C109.255 44.1977 109.872 44.8237 109.872 45.6215C109.872 46.1337 109.563 46.5895 109.17 46.8457C107.767 48.042 105.86 48.839 103.896 48.839C99.4076 48.839 95.7595 45.1371 95.7595 40.5809C95.7595 36.0246 99.4067 32.3227 103.896 32.3227C105.579 32.3227 107.178 32.8349 108.469 33.7179V33.7179ZM116.677 37.1637C119.734 37.1637 122.315 39.7552 122.315 42.944C122.315 46.1338 119.734 48.839 116.677 48.839C113.478 48.839 110.813 46.1338 110.813 42.944C110.813 39.7552 113.478 37.1637 116.677 37.1637ZM116.648 45.9914C117.995 45.9914 119.145 44.7099 119.145 42.9727C119.145 41.2363 117.995 40.1537 116.648 40.1537C115.189 40.1537 113.983 41.2077 113.983 42.9727C113.983 44.7099 115.189 45.9914 116.648 45.9914ZM124.238 47.0731V38.9296C124.238 38.0466 124.94 37.3061 125.81 37.3061C126.68 37.3061 127.409 38.0466 127.409 38.9296V47.0731C127.409 47.9561 126.68 48.6966 125.81 48.6966C124.94 48.6966 124.238 47.9561 124.238 47.0731V47.0731ZM123.987 34.231C123.987 33.177 124.799 32.3227 125.81 32.3227C126.847 32.3227 127.689 33.177 127.689 34.231C127.689 35.2554 126.847 36.0819 125.81 36.0819C124.799 36.0819 123.987 35.2554 123.987 34.231ZM133.485 42.6593V47.0731C133.485 47.9561 132.755 48.6966 131.885 48.6966C131.016 48.6966 130.313 47.9561 130.313 47.0731V38.5589C130.313 37.8756 130.875 37.3061 131.549 37.3061C132.221 37.3061 132.755 37.8756 132.755 38.5589C134.045 37.3634 135.167 37.1637 136.233 37.1637C139.404 37.1637 140.807 39.5555 140.807 42.2608V47.0731C140.807 47.9561 140.078 48.6966 139.208 48.6966C138.338 48.6966 137.636 47.9561 137.636 47.0731V42.6593C137.636 41.2641 137.468 40.0964 135.476 40.0964C134.073 40.0964 133.484 41.2641 133.484 42.6593H133.485ZM151.118 44.3401C150.754 44.3401 150.502 44.1691 150.305 43.9407L146.601 39.9262V47.0731C146.601 47.9561 145.872 48.6966 145.002 48.6966C144.132 48.6966 143.431 47.9561 143.431 47.0731V32.9217C143.476 32.8025 143.557 32.7002 143.663 32.6287C143.768 32.5573 143.893 32.5201 144.021 32.5224C144.3 32.5224 144.524 32.7507 144.694 32.9217L150.585 39.5564C150.754 39.7561 150.978 39.8698 151.091 39.8698C151.203 39.8698 151.426 39.7561 151.595 39.5573L157.487 32.9217C157.656 32.7507 157.88 32.5224 158.16 32.5224C158.441 32.5224 158.665 32.6934 158.75 32.9217V47.0731C158.75 47.9561 158.048 48.6966 157.178 48.6966C156.308 48.6966 155.579 47.9561 155.579 47.0731V39.9262L151.876 43.9407C151.679 44.1691 151.426 44.3401 151.118 44.3401V44.3401ZM166.368 45.9914C167.799 45.9914 169.005 44.7099 169.005 42.9727C169.005 41.2363 167.771 40.0964 166.368 40.0964C164.965 40.0964 163.842 41.2641 163.842 42.9727C163.842 44.6526 164.965 45.9914 166.368 45.9914ZM169.735 47.4438L169.677 47.0731C169.061 48.2973 167.096 48.839 165.834 48.839C162.86 48.839 160.672 46.1338 160.672 42.944C160.672 39.7552 162.916 37.1637 166.002 37.1637C166.535 37.1637 168.303 37.3061 169.677 38.9296L169.734 38.5589C169.734 37.8756 170.267 37.3061 170.941 37.3061C171.613 37.3061 172.174 37.8756 172.174 38.5589V47.4438C172.174 48.1271 171.613 48.6966 170.94 48.6966C170.267 48.6966 169.733 48.1271 169.733 47.4438H169.735ZM180.972 40.0964H180.636C178.643 40.211 178.251 41.3501 178.251 42.6593V47.0731C178.251 47.9561 177.521 48.6966 176.652 48.6966C175.782 48.6966 175.08 47.9561 175.08 47.0731V38.5589C175.08 37.8756 175.641 37.3061 176.315 37.3061C176.988 37.3061 177.521 37.8756 177.521 38.5589C178.7 37.4484 179.654 37.221 180.636 37.1637H180.944C181.702 37.1637 182.402 37.8183 182.402 38.6448C182.402 39.4131 181.73 40.0964 180.972 40.0964V40.0964ZM193.191 46.3334C193.332 46.5609 193.416 46.817 193.416 47.1018C193.416 47.9274 192.658 48.6966 191.845 48.6966C191.284 48.6966 190.806 48.2695 190.442 47.8137L186.795 43.5709V47.0731C186.795 47.9561 186.065 48.6966 185.195 48.6966C184.325 48.6966 183.624 47.9561 183.624 47.0731V34.1459C183.624 33.2621 184.325 32.5224 185.195 32.5224C186.065 32.5224 186.795 33.2621 186.795 34.1459V42.2044L190.442 38.1604C190.806 37.7332 191.255 37.3061 191.817 37.3061C192.603 37.3061 193.332 38.0466 193.332 38.8723C193.332 39.1284 193.276 39.3845 193.135 39.6128L190.246 42.773L193.191 46.3326V46.3334ZM199.407 40.1537C198.538 40.1537 197.135 40.6095 197.135 41.9474H201.707C201.707 40.5809 200.249 40.1537 199.407 40.1537H199.407ZM203.559 43.9694H197.135C197.135 45.8776 198.958 46.1624 199.771 46.1624C200.362 46.1624 201.203 46.0487 201.848 45.763C202.044 45.6215 202.381 45.5069 202.661 45.5069C203.363 45.5069 203.952 46.106 203.952 46.8179C203.952 47.3015 203.643 47.7286 203.251 47.9561C202.269 48.668 201.006 48.839 199.8 48.839C196.602 48.839 193.936 47.1026 193.936 43.0864C193.936 39.9262 195.563 37.1637 199.351 37.1637C202.409 37.1637 204.737 39.157 204.794 42.7166C204.794 43.3998 204.233 43.9694 203.559 43.9694V43.9694ZM212.384 48.839H211.514C209.101 48.839 207.699 47.785 207.699 43.998V40.0964H206.885C206.127 40.0964 205.454 39.4131 205.454 38.6448C205.454 37.8183 206.127 37.1637 206.885 37.1637H207.699V34.145C207.699 33.2621 208.4 32.5215 209.27 32.5215C210.139 32.5215 210.869 33.2621 210.869 34.145V37.1637H212.187C212.945 37.1637 213.619 37.8183 213.619 38.6448C213.619 39.4131 212.945 40.0964 212.187 40.0964H210.869V43.3712C210.869 45.5356 210.981 45.9914 211.935 45.9914H212.384C213.141 45.9914 213.786 46.6182 213.786 47.4152C213.786 48.1844 213.141 48.839 212.384 48.839ZM227.746 33.7179C228.166 33.974 228.532 34.5435 228.532 35.0566C228.532 35.8822 227.83 36.5655 227.044 36.5655C226.848 36.5655 226.651 36.5091 226.484 36.4518C225.557 35.7685 224.379 35.3127 223.144 35.3127C220.227 35.3127 218.206 37.7046 218.206 40.6659C218.206 43.6282 220.227 45.9914 223.144 45.9914C224.603 45.9914 225.894 45.3932 226.876 44.4825C227.13 44.3001 227.433 44.2007 227.746 44.1977C228.532 44.1977 229.148 44.8237 229.148 45.6215C229.148 46.1337 228.84 46.5895 228.447 46.8457C227.044 48.042 225.136 48.839 223.172 48.839C218.684 48.839 215.037 45.1371 215.037 40.5809C215.037 36.0246 218.683 32.3227 223.172 32.3227C224.857 32.3227 226.455 32.8349 227.746 33.7179V33.7179ZM235.785 45.9914C237.216 45.9914 238.422 44.7099 238.422 42.9727C238.422 41.2363 237.187 40.0964 235.784 40.0964C234.382 40.0964 233.26 41.2641 233.26 42.9727C233.26 44.6526 234.382 45.9914 235.784 45.9914H235.785ZM239.151 47.4438L239.096 47.0731C238.478 48.2973 236.514 48.839 235.251 48.839C232.278 48.839 230.089 46.1338 230.089 42.944C230.089 39.7552 232.334 37.1637 235.42 37.1637C235.953 37.1637 237.72 37.3061 239.096 38.9296L239.151 38.5589C239.151 37.8756 239.684 37.3061 240.358 37.3061C241.031 37.3061 241.592 37.8756 241.592 38.5589V47.4438C241.592 48.1271 241.031 48.6966 240.358 48.6966C239.684 48.6966 239.151 48.1271 239.151 47.4438ZM250.305 45.9914C251.708 45.9914 252.829 44.6526 252.829 42.9727C252.829 41.2641 251.708 40.0964 250.305 40.0964C248.902 40.0964 247.667 41.2355 247.667 42.9727C247.667 44.7099 248.874 45.9914 250.305 45.9914ZM247.667 47.8996V51.9428C247.667 52.8257 246.938 53.5663 246.068 53.5663C245.199 53.5663 244.497 52.8257 244.497 51.9428V38.5589C244.497 37.8756 245.058 37.3061 245.732 37.3061C246.405 37.3061 246.939 37.8756 246.939 38.6726C248.116 37.4484 249.575 37.1637 250.669 37.1637C253.756 37.1637 256 39.7552 256 42.944C256 46.1338 253.812 48.839 250.838 48.839C249.912 48.839 248.537 48.5542 247.667 47.8996V47.8996Z" fill="#2B2323"/>
</svg>
