<svg width="305" height="80" viewBox="0 0 305 80" fill="none" xmlns="http://www.w3.org/2000/svg">
<g clip-path="url(#clip0)">
<path d="M83.0951 29.8837C83.5572 30.4486 83.9354 31.139 84.5025 31.5575C85.5318 32.2898 85.8469 33.1266 85.4268 34.2774C85.3848 34.4029 85.3638 34.5493 85.3638 34.6958C85.3848 36.4742 84.9647 38.1061 84.1454 39.738C83.2422 41.5583 83.6623 43.504 84.7966 45.1987C85.1327 45.6799 85.2588 46.1611 85.2588 46.7469C85.2378 49.0065 85.2378 51.2661 85.2588 53.5466C85.2588 57.208 87.7585 59.8023 91.4976 59.8651C95.4468 59.9279 99.396 59.886 103.345 59.886C103.87 59.886 104.374 59.886 104.9 59.886C104.9 60.0743 104.921 60.158 104.9 60.1789C98.5978 63.8822 91.9388 66.5811 84.5235 66.9577C81.2045 67.1251 77.9486 66.7485 74.9657 65.0956C71.3736 63.129 69.483 60.0116 69.0839 56.0154C68.6428 51.5381 69.9452 47.3955 71.8778 43.4412C74.4195 38.2316 77.9066 33.6706 82.1078 29.6745C82.5279 29.3816 82.801 29.7163 83.0951 29.8837Z" fill="#32699D"/>
<path d="M94.9636 19.7571C99.9421 16.8489 105.152 14.6311 110.823 13.5641C114.499 12.8737 118.197 12.6854 121.852 13.7315C127.964 15.489 131.304 20.4475 130.737 26.7869C130.233 32.4777 127.817 37.4153 124.688 42.06C122.629 45.1147 120.213 47.8555 117.629 50.4498C117.482 50.5963 117.377 50.8055 117.02 50.8055C117.02 49.1945 116.999 47.5835 117.041 45.9516C117.041 45.6377 117.293 45.3239 117.482 45.0101C118.743 42.8342 118.785 40.6583 117.461 38.4824C117.146 37.9593 116.978 37.4363 116.999 36.8086C117.041 35.5533 116.978 34.2979 116.663 33.0845C116.537 32.5823 116.747 32.3313 117.083 32.0384C119.94 29.6114 120.696 26.1174 119.1 22.9163C117.545 19.8408 113.764 17.9996 110.382 18.6691C109.059 18.9411 107.819 19.3386 106.748 20.1755C106.37 20.4684 106.034 20.5312 105.593 20.3847C102.61 19.4014 99.606 19.4014 96.6231 20.4266C95.8459 20.6776 95.4258 20.322 94.9636 19.7571Z" fill="#32699D"/>
<path d="M198.441 52.7099C198.441 54.6557 198.42 56.6014 198.462 58.5263C198.483 59.1958 198.315 59.4887 197.601 59.4259C196.466 59.3213 195.017 59.9071 194.282 59.1749C193.63 58.5472 194.114 57.1245 194.093 56.0575C194.072 51.7057 194.114 47.3539 194.072 43.0021C194.072 42.2279 194.24 41.956 195.059 42.0187C196.235 42.1024 197.643 41.7049 198.567 42.1861C199.512 42.6882 199.701 44.1737 200.226 45.2407C200.899 46.6007 201.571 47.9815 202.243 49.4042C202.558 49.1532 202.432 48.8603 202.453 48.6092C202.474 46.7262 202.495 44.8432 202.432 42.9602C202.411 42.1443 202.684 41.935 203.44 41.9978C204.302 42.0606 205.184 42.0396 206.066 41.9978C206.612 41.9769 206.885 42.0815 206.864 42.7301C206.843 48.0652 206.843 53.3794 206.864 58.7146C206.864 59.2795 206.633 59.4468 206.129 59.405C205.856 59.3841 205.562 59.405 205.289 59.405C204.218 59.3841 202.936 59.7188 202.096 59.2586C201.172 58.7355 200.983 57.3337 200.457 56.3085C199.848 55.095 199.281 53.8816 198.693 52.6472C198.588 52.6681 198.525 52.689 198.441 52.7099Z" fill="#32699D"/>
<path d="M171.3 49.3412C171.3 47.2281 171.321 45.094 171.279 42.9809C171.258 42.2905 171.427 41.9766 172.183 42.0185C173.023 42.0812 173.863 42.0812 174.703 42.0185C175.481 41.9557 175.628 42.2695 175.607 42.96C175.586 48.1486 175.586 53.3373 175.607 58.526C175.607 59.3001 175.355 59.4884 174.64 59.4257C174.01 59.3629 173.359 59.3211 172.75 59.4257C171.153 59.7186 170.376 58.9863 169.83 57.5636C169.179 55.9108 168.318 54.3625 167.54 52.7515C167.141 52.9398 167.309 53.2536 167.309 53.4838C167.288 55.1994 167.288 56.8941 167.309 58.6097C167.309 59.1746 167.183 59.4257 166.553 59.4047C165.566 59.3629 164.599 59.3629 163.612 59.4047C163.024 59.4257 162.919 59.1746 162.919 58.6725C162.94 53.3792 162.94 48.0859 162.919 42.7926C162.919 42.2277 163.024 41.9766 163.675 41.9975C164.894 42.0603 166.28 41.6837 167.288 42.144C168.297 42.5834 168.444 44.1107 168.969 45.1359C169.683 46.5376 170.355 47.9813 171.048 49.404C171.153 49.3831 171.216 49.3621 171.3 49.3412Z" fill="#32699D"/>
<path d="M224.783 50.7224C224.783 48.8813 224.762 47.0401 224.783 45.178C224.804 43.1277 225.917 42.0397 227.996 42.0188C230.37 42.0188 232.765 42.0397 235.139 41.9979C235.853 41.977 236.063 42.2071 236.021 42.8766C235.979 43.7763 235.979 44.6968 236.021 45.5965C236.042 46.1823 235.811 46.3915 235.223 46.3706C233.542 46.3497 231.862 46.4124 230.181 46.3497C229.299 46.3078 229.131 46.6426 229.152 47.4167C229.173 48.1281 229.173 48.6093 230.139 48.5256C231.4 48.4419 232.66 48.5256 233.92 48.4837C234.529 48.4628 234.824 48.6093 234.782 49.2788C234.719 50.2203 234.74 51.1618 234.782 52.1033C234.803 52.7309 234.55 52.8774 233.983 52.8565C232.765 52.8146 231.526 52.9192 230.307 52.8355C229.362 52.7728 229.152 53.0866 229.131 53.9863C229.11 54.9696 229.488 55.137 230.349 55.0951C231.946 55.0324 233.563 55.0951 235.181 55.0742C235.832 55.0533 236.042 55.2625 236.021 55.9111C235.979 56.8107 235.979 57.7313 236.021 58.631C236.042 59.1331 235.916 59.3842 235.328 59.3842C232.702 59.3632 230.076 59.4051 227.45 59.3632C225.875 59.3423 224.846 58.1707 224.804 56.4341C224.741 54.5512 224.783 52.6263 224.783 50.7224Z" fill="#32699D"/>
<path d="M182.35 29.6117C182.35 31.9759 182.35 34.3192 182.35 36.6834C182.35 38.0015 182.35 38.0015 180.963 38.0015C180.228 38.0015 179.493 37.9806 178.758 38.0015C178.254 38.0224 177.98 37.8969 177.98 37.3111C178.001 31.955 178.001 26.578 177.98 21.222C177.98 20.6571 178.233 20.5106 178.737 20.5315C179.64 20.5525 180.564 20.5734 181.468 20.5315C182.203 20.4897 182.35 20.8035 182.329 21.4521C182.287 23.3769 182.308 25.3227 182.56 27.3103C183.043 26.306 183.526 25.2809 184.009 24.2766C184.492 23.2305 184.997 22.2053 185.459 21.1383C185.648 20.678 185.942 20.5106 186.425 20.5315C187.412 20.5525 188.379 20.5734 189.366 20.5315C189.996 20.5106 190.08 20.6989 189.828 21.2429C188.82 23.3769 187.853 25.5528 186.803 27.666C186.509 28.2727 186.551 28.733 186.866 29.2979C188.274 31.8713 189.597 34.4657 191.004 37.0391C191.446 37.855 191.235 37.8969 190.416 38.0224C187.916 38.4199 186.446 37.5412 185.543 35.1352C184.808 33.1685 183.589 31.3901 182.602 29.5071C182.518 29.549 182.434 29.5699 182.35 29.6117Z" fill="#32699D"/>
<path d="M184.597 49.0903C183.883 52.2076 183.148 55.325 182.497 58.4634C182.329 59.2375 182.035 59.4885 181.257 59.4258C180.354 59.363 179.43 59.3839 178.527 59.4258C177.98 59.4467 177.896 59.2793 178.022 58.7563C179.262 53.4002 180.48 48.0441 181.699 42.6881C181.804 42.186 182.056 42.0186 182.56 42.0395C183.988 42.0604 185.438 42.0604 186.866 42.0395C187.412 42.0186 187.664 42.165 187.79 42.7508C188.988 48.1069 190.206 53.463 191.445 58.819C191.551 59.3002 191.445 59.4676 190.983 59.4467C190.668 59.4258 190.353 59.4467 190.038 59.4467C187.139 59.4467 187.16 59.4467 186.551 56.5804C186.005 54.0697 185.417 51.58 184.85 49.0903C184.765 49.0693 184.681 49.0693 184.597 49.0903Z" fill="#32699D"/>
<path d="M91.9389 48.0641C89.4601 47.8967 86.7503 46.9971 85.2589 44.1307C83.8935 41.5155 84.7967 38.7538 87.4435 36.9754C89.4601 35.6154 91.6868 35.3016 94.0605 35.5527C94.4176 35.5945 94.7537 35.6154 94.7327 36.1385C94.6277 37.7913 95.804 38.691 96.8964 39.6116C97.7156 40.2811 98.6609 40.8041 99.6902 40.9924C100.656 41.1807 100.656 41.7456 100.551 42.436C100.152 44.7793 98.6609 46.2439 96.6023 47.2272C95.2789 47.834 93.9135 48.0641 91.9389 48.0641Z" fill="#32699D"/>
<path d="M109.962 48.0852C105.887 48.1062 102.799 46.1813 101.812 43.3359C101.287 41.7877 101.392 41.5366 102.883 41.0136C104.543 40.4277 105.887 39.4026 106.979 38.0426C107.358 37.5823 107.694 37.0384 107.652 36.4316C107.61 35.7203 107.904 35.5529 108.555 35.511C110.698 35.3855 112.714 35.6993 114.563 36.9128C116.579 38.2309 117.693 40.0093 117.399 42.4363C117.125 44.7377 115.613 46.1604 113.659 47.1437C112.378 47.8133 110.971 48.0643 109.962 48.0852Z" fill="#32699D"/>
<path d="M134.834 29.3604C134.834 26.787 134.855 24.2135 134.813 21.6192C134.792 20.8242 134.981 20.5103 135.842 20.5312C138.993 20.5731 142.144 20.5731 145.295 20.5312C145.967 20.5312 146.24 20.6986 146.198 21.41C146.135 22.3096 146.135 23.2302 146.198 24.1299C146.24 24.7994 145.967 24.9458 145.337 24.9249C143.551 24.8831 141.766 24.9249 139.98 24.904C139.413 24.904 139.203 25.0504 139.182 25.6572C139.14 27.7285 139.119 27.7285 141.157 27.7285C142.585 27.7285 144.034 27.7494 145.463 27.7285C146.009 27.7075 146.198 27.8958 146.177 28.4398C146.135 29.4232 146.135 30.3856 146.177 31.3689C146.198 31.9757 145.967 32.143 145.379 32.1221C143.698 32.1012 142.018 32.1849 140.337 32.0803C139.329 32.0175 139.119 32.3941 139.161 33.3147C139.224 34.6328 139.161 35.9509 139.182 37.2899C139.203 37.8338 139.035 38.0431 138.468 38.0221C137.523 37.9803 136.577 37.9803 135.632 38.0221C134.897 38.064 134.75 37.7292 134.771 37.1016C134.855 34.5072 134.834 31.9338 134.834 29.3604Z" fill="#32699E"/>
<path d="M140.568 42.0188C142.186 42.0188 143.782 42.0606 145.4 41.9979C146.072 41.977 146.24 42.2071 146.219 42.8348C146.177 43.7344 146.177 44.655 146.219 45.5546C146.261 46.1823 146.051 46.3915 145.4 46.3915C143.614 46.3497 141.829 46.4124 140.043 46.3706C139.371 46.3497 139.224 46.5798 139.224 47.2075C139.224 49.1532 139.182 49.1532 141.094 49.1532C142.564 49.1532 144.034 49.1742 145.505 49.1323C146.072 49.1114 146.24 49.3206 146.219 49.8437C146.177 50.827 146.177 51.7894 146.219 52.7728C146.24 53.3795 146.009 53.5469 145.442 53.526C143.761 53.505 142.081 53.5887 140.4 53.4841C139.371 53.4214 139.182 53.8189 139.224 54.7185C139.287 56.0366 139.224 57.3547 139.245 58.6937C139.266 59.2168 139.119 59.4469 138.552 59.426C137.544 59.3842 136.514 59.4051 135.506 59.426C135.002 59.4469 134.834 59.2377 134.834 58.7565C134.855 53.4004 134.855 48.0444 134.834 42.6674C134.834 42.0397 135.17 42.0188 135.632 42.0397C137.27 42.0397 138.909 42.0188 140.568 42.0188Z" fill="#32699D"/>
<path d="M216.926 59.4043C215.729 59.4043 214.552 59.4253 213.355 59.4043C211.633 59.3625 210.372 58.2746 210.351 56.5799C210.288 52.6883 210.288 48.7759 210.351 44.8844C210.372 43.1897 211.654 42.0599 213.355 42.039C215.813 41.9971 218.25 42.039 220.707 42.0181C221.317 42.0181 221.527 42.2273 221.485 42.7922C221.401 43.922 221.947 45.3656 221.275 46.1397C220.623 46.8929 219.174 46.3071 218.061 46.3908C217.388 46.4326 216.737 46.3908 216.065 46.4117C215.141 46.4326 214.637 46.9348 214.637 47.8553C214.637 49.7802 214.615 51.6841 214.637 53.6089C214.658 54.6759 215.099 55.0735 216.212 55.0944C217.682 55.1153 219.153 55.1572 220.623 55.1362C221.253 55.1362 221.527 55.2827 221.464 55.9522C221.38 57.0611 221.905 58.4838 221.275 59.1951C220.623 59.9274 219.174 59.3625 218.061 59.4253C217.703 59.4253 217.304 59.4043 216.926 59.4043Z" fill="#32699D"/>
<path d="M116.012 36.7877C113.386 34.8001 110.592 34.2143 107.567 34.6955C107.294 34.7373 107.021 34.6955 106.769 34.5699C103.639 32.9799 100.32 32.9171 97.1063 34.005C95.6778 34.4863 94.3754 34.6746 92.905 34.5699C90.5103 34.4026 88.3046 35.1348 86.267 36.704C86.204 35.5533 86.309 34.6118 86.4771 33.6703C86.5821 33.1682 86.8552 33.21 87.2543 33.3565C88.3046 33.754 89.397 33.9423 90.5313 33.9214C93.6612 33.8795 96.077 32.4777 97.5894 29.7997C99.0809 27.1844 98.8288 24.5064 97.1483 22.0167C96.7071 21.3681 96.9382 21.1798 97.5264 21.0543C99.9421 20.4684 102.379 20.5103 104.795 21.0961C105.32 21.2216 105.362 21.4099 105.068 21.8911C103.009 25.1131 103.135 28.3561 105.32 30.9923C107.567 33.6912 111.475 34.7164 114.731 33.4192C115.55 33.0845 115.865 33.1891 115.886 34.0678C115.886 34.8838 116.159 35.7207 116.012 36.7877Z" fill="#32699D"/>
<path d="M154.39 59.4044C153.34 59.4044 152.29 59.3625 151.239 59.4253C150.462 59.4671 150.252 59.1951 150.336 58.4838C150.399 57.9398 150.378 57.3749 150.336 56.81C150.273 55.7848 150.168 54.8224 151.723 55.0944C152.143 55.1781 152.227 54.8224 152.227 54.4877C152.227 51.977 152.227 49.4663 152.227 46.9766C152.227 46.2234 151.681 46.3699 151.26 46.4117C150.546 46.4745 150.252 46.2443 150.315 45.4911C150.378 44.5915 150.357 43.6709 150.315 42.7713C150.294 42.2901 150.378 42.0181 150.987 42.0181C153.256 42.0599 155.525 42.039 157.814 42.0181C158.403 42.0181 158.529 42.2482 158.508 42.7503C158.487 43.65 158.445 44.5706 158.508 45.4702C158.55 46.2234 158.277 46.4954 157.562 46.3908C156.764 46.2653 156.575 46.6 156.575 47.3741C156.617 49.6756 156.617 51.977 156.575 54.2575C156.554 54.9479 156.764 55.2409 157.457 55.1153C158.277 54.9898 158.571 55.3036 158.508 56.1405C158.403 57.1657 158.928 58.5256 158.319 59.1742C157.646 59.8646 156.281 59.3207 155.21 59.4044C154.958 59.4253 154.663 59.4044 154.39 59.4044Z" fill="#32699D"/>
<path d="M94.2285 20.615C93.9975 20.6359 93.7664 20.6359 93.5353 20.6568C93.7874 20.4267 93.8084 20.2802 93.4723 20.0501C91.4557 18.732 87.8636 19.004 85.5529 20.6777C83.3053 22.3097 82.2759 25.1341 83.0112 27.6657C83.1582 28.1469 83.4313 28.5654 82.9061 29.0466C82.6331 29.2976 83.0952 29.5905 83.0952 29.8835C82.7591 29.8207 82.444 29.7579 82.1079 29.6742C82.444 29.3186 82.465 28.9629 82.297 28.4608C81.2676 25.3015 82.2759 21.954 84.7757 20.0291C87.4435 17.9788 91.4977 17.7696 94.2705 19.3806C95.2998 19.9873 93.9765 20.2174 94.2285 20.615Z" fill="#346A9E"/>
<path d="M116.558 52.0195C115.928 50.5968 116.369 49.3415 116.096 48.0234C116.033 47.6886 116.096 47.333 116.096 46.7681C114.563 47.6677 113.218 48.6301 111.58 48.7557C110.718 48.8394 110.235 49.1741 110.109 50.0319C110.046 50.4504 109.857 50.8479 109.311 50.8479C108.744 50.8479 108.639 50.4085 108.555 50.011C108.387 49.195 107.967 48.7347 107.084 48.6929C106.748 48.672 106.412 48.5255 106.076 48.4209C104.69 47.9397 104.69 47.9397 104.248 49.2787C104.122 49.6344 103.975 50.011 103.786 50.3248C103.219 51.2454 102.484 52.0195 101.287 51.9777C100.089 51.9358 99.333 51.1617 98.7869 50.1784C98.6398 49.9064 98.5558 49.5926 98.4087 49.3206C98.1567 48.7975 98.3457 47.8979 97.8626 47.7514C97.4425 47.605 96.8123 48.1489 96.2451 48.3372C95.3628 48.6511 94.3965 48.8184 94.3125 50.0528C94.2705 50.4713 94.1025 50.8897 93.5563 50.8897C93.0101 50.8897 92.9261 50.4713 92.7581 50.0738C92.59 49.6762 92.632 49.0277 92.0648 49.0067C89.9432 48.923 88.0526 48.2117 86.1831 46.8936C86.1831 49.4461 86.0571 51.7894 86.2041 54.1327C86.3932 57.1454 88.5358 58.9447 91.6027 58.9447C95.6569 58.9447 99.7111 58.9447 103.786 58.9447C104.585 58.9447 105.404 58.9447 106.202 58.9447C106.391 58.9447 106.79 58.9447 106.685 59.1121C105.971 60.1373 107.042 59.5724 107.147 59.5724C108.345 59.6143 109.521 59.6143 110.718 59.5933C112.84 59.5515 114.458 58.5891 115.676 56.8944C116.726 55.388 117.209 53.4841 116.558 52.0195ZM107.504 58.6309C110.403 56.6224 113.071 54.6348 115.676 52.2915C116.054 57.0408 113.533 58.9866 107.504 58.6309Z" fill="#32699D"/>
<path d="M175.208 36.9761C174.451 35.6162 173.758 34.2144 173.002 32.8335C172.771 32.3942 172.666 32.1431 173.275 31.892C174.031 31.5782 174.241 30.8669 174.241 30.0718C174.241 28.0633 174.241 26.0338 174.241 24.0253C174.22 21.8494 172.96 20.5941 170.775 20.5732C168.465 20.5522 166.154 20.5941 163.864 20.5522C163.045 20.5313 162.877 20.8452 162.877 21.5984C162.919 24.1299 162.898 26.6824 162.898 29.214C162.898 31.0133 162.856 32.8335 162.919 34.6328C162.94 35.7208 162.394 37.1644 163.171 37.813C163.906 38.4407 165.314 37.9176 166.427 38.0013C167.078 38.0431 167.288 37.813 167.267 37.1644C167.225 35.7836 167.246 34.3818 167.267 32.98C167.267 32.6662 167.078 32.2477 167.603 32.1222C168.107 32.0176 168.381 32.2477 168.591 32.6662C168.99 33.4821 169.557 34.2353 169.83 35.0722C170.628 37.4782 172.141 38.3988 174.682 38.0222C175.691 37.8967 175.607 37.6875 175.208 36.9761ZM167.624 27.7495C167.393 27.6867 167.246 27.5821 167.246 27.331C167.246 26.5569 167.246 25.8037 167.246 25.0296C167.246 24.7157 167.414 24.5902 167.708 24.5902C167.918 24.5902 168.128 24.5902 168.339 24.5902C169.872 24.5902 169.872 24.5902 169.872 26.1385C169.851 27.6867 169.158 28.1888 167.624 27.7495Z" fill="#32699D"/>
<path d="M160.608 25.1126C160.545 22.8111 158.886 20.9491 156.659 20.6562C155.231 20.4888 153.781 20.4679 152.374 20.6771C150.21 20.97 148.551 22.8111 148.509 24.9661C148.467 27.8534 148.425 30.7406 148.53 33.6279C148.593 35.5318 149.622 36.8708 151.408 37.624C152.899 38.2517 154.454 37.9797 155.966 37.9797C158.655 37.9797 160.587 36.013 160.629 33.3559C160.65 31.9959 160.629 30.636 160.629 29.2761C160.608 27.8952 160.65 26.4934 160.608 25.1126ZM156.218 32.3935C156.197 33.4396 155.861 33.6488 154.517 33.6488C153.613 33.6488 153.025 33.3768 153.067 32.3516C153.088 31.3683 153.067 30.4059 153.067 29.4225C153.067 28.4392 153.046 27.4768 153.067 26.4934C153.088 25.4264 153.403 25.1335 154.559 25.1335C155.861 25.1335 156.197 25.3636 156.218 26.4516C156.239 28.4183 156.239 30.4059 156.218 32.3935Z" fill="#32699D"/>
<path d="M92.1697 40.9929C92.0647 41.3277 91.8756 41.5578 91.5185 41.495C91.2034 41.4532 91.0564 41.2021 91.0774 40.8883C91.0984 40.5745 91.3085 40.3652 91.6026 40.3652C91.9387 40.3862 92.1487 40.6372 92.1697 40.9929Z" fill="#DFE8F0"/>
<path d="M94.5225 43.2736C94.5225 43.5874 94.3544 43.8176 94.0393 43.8385C93.6822 43.8594 93.4512 43.6711 93.4512 43.2945C93.4512 42.9389 93.6612 42.8343 93.9973 42.8343C94.3124 42.8133 94.5015 42.9389 94.5225 43.2736Z" fill="#E9EFF4"/>
<path d="M91.2036 45.1146C90.8675 44.9891 90.6574 44.8008 90.6994 44.4451C90.7414 44.1104 91.0145 44.0267 91.3086 44.0685C91.6237 44.1104 91.8127 44.2778 91.7497 44.6125C91.6867 44.8845 91.4976 45.0728 91.2036 45.1146Z" fill="#E8EEF4"/>
<path d="M111.306 40.9301C111.285 41.2858 111.075 41.516 110.718 41.495C110.424 41.495 110.193 41.2858 110.193 40.9511C110.193 40.5745 110.424 40.3652 110.76 40.3652C111.075 40.3862 111.264 40.5954 111.306 40.9301Z" fill="#E2EAF1"/>
<path d="M108.912 43.3156C108.849 43.6503 108.681 43.8595 108.366 43.8595C107.988 43.8595 107.778 43.6294 107.799 43.2737C107.82 42.939 108.051 42.7716 108.366 42.8134C108.66 42.8134 108.849 43.0227 108.912 43.3156Z" fill="#D9E4ED"/>
<path d="M111.685 44.5291C111.622 44.822 111.517 45.073 111.18 45.094C110.802 45.1149 110.613 44.8847 110.613 44.5291C110.613 44.1943 110.823 44.0479 111.138 44.0479C111.454 44.0479 111.643 44.2152 111.685 44.5291Z" fill="#E7EEF3"/>
<path d="M111.685 19.464C107.714 19.4849 104.521 22.4977 104.521 26.2637C104.521 30.0087 107.672 33.0215 111.58 33.0215C115.697 33.0215 118.89 30.0924 118.911 26.2846C118.953 22.5186 115.697 19.4431 111.685 19.464ZM110.445 31.6197C108.387 31.5988 106.727 30.0715 106.706 28.1676C106.685 26.2218 108.387 24.6108 110.466 24.6108C112.567 24.6108 114.226 26.1591 114.226 28.1257C114.226 30.1343 112.588 31.6406 110.445 31.6197Z" fill="#32699D"/>
<path d="M97.5475 26.0333C97.4635 23.6482 96.3502 21.7861 94.2285 20.6145C93.9975 20.5308 93.7664 20.5726 93.5353 20.6563C90.0483 22.7276 86.8763 25.2383 83.8514 27.9372C83.3683 28.3766 83.5783 28.7113 83.7884 29.1088C85.7 32.8957 90.6154 34.2138 94.3336 31.8915C96.4762 30.5525 97.6525 28.5858 97.5475 26.0333ZM91.6027 31.6404C89.5021 31.6613 87.8216 30.0713 87.8426 28.1046C87.8636 26.1797 89.5021 24.6315 91.5607 24.6106C93.6824 24.5897 95.3629 26.1379 95.3629 28.1046C95.3419 30.1131 93.7454 31.6195 91.6027 31.6404Z" fill="#32699E"/>
</g>
<defs>
<clipPath id="clip0">
<rect width="167" height="54" fill="white" transform="translate(69 13)"/>
</clipPath>
</defs>
</svg>
