<svg width="24" height="24" viewBox="0 0 24 24" fill="none" xmlns="http://www.w3.org/2000/svg">
<circle cx="12" cy="12" r="12" fill="white"/>
<path d="M13.9436 9.30083C13.9436 7.21153 12.8975 5.41422 12.1023 4.82902C12.0985 4.82779 12.0418 4.79589 12.0468 4.87932C12.0468 4.88055 12.0456 4.88055 12.0456 4.88177C11.98 8.91683 9.86268 10.0099 8.69814 11.4834C6.01113 14.883 8.51035 18.6101 11.0549 19.2983C12.4791 19.6835 10.726 18.6162 10.5004 16.3612C10.2269 13.6365 13.9436 11.557 13.9436 9.30083Z" fill="#323943"/>
<path d="M15.1786 10.6752C15.1622 10.6641 15.1396 10.6568 15.1232 10.6825C15.0791 11.1905 14.5459 12.2774 13.8704 13.2748C11.5791 16.6584 12.8848 18.2901 13.6196 19.1661C14.0456 19.6752 13.6196 19.1661 14.6846 18.6459C14.7678 18.6054 16.7641 17.516 16.9796 15.0341C17.1901 12.6307 15.7067 11.1156 15.1786 10.6752Z" fill="#01943F"/>
</svg>
