<svg width="44" height="32" viewBox="0 0 44 32" fill="none" xmlns="http://www.w3.org/2000/svg">
<path d="M37.4757 20.6376C34.866 20.6376 31.9431 19.9487 31.2645 19.8957C31.1079 20.5316 29.2811 22.9692 29.2811 22.9692C29.2811 22.9692 29.5421 19.6837 30.847 17.3521C32.1518 14.9675 35.2835 13.2187 35.2835 13.2187C35.2835 13.2187 34.1352 10.6752 27.9241 10.3042C21.6607 9.93327 17.2764 13.8017 17.2764 13.8017C17.2764 13.8017 17.4852 11.9999 20.1993 10.2512C22.9134 8.5025 26.0973 7.91959 26.0973 7.91959C26.0973 7.91959 22.7568 0.500768 16.8588 0.0238432C10.9609 -0.453081 7.46382 6.38283 7.46382 6.38283L0 8.55549L4.8019 10.5162C4.8019 10.5162 3.13167 19.2068 9.39502 25.6188C15.6584 32.0308 26.567 32.5607 32.3084 30.547C38.0498 28.5333 44 20.5846 44 20.5846C44 20.5846 40.0854 20.6376 37.4757 20.6376ZM13.3618 9.66831C12.0569 9.66831 10.9609 8.60848 10.9609 7.2307C10.9609 5.90591 12.0047 4.79309 13.3618 4.79309C14.6667 4.79309 15.7628 5.85292 15.7628 7.2307C15.7628 8.55549 14.6667 9.66831 13.3618 9.66831Z" fill="#CFB365"/>
</svg>
