<svg width="30" height="31" viewBox="0 0 30 31" fill="none" xmlns="http://www.w3.org/2000/svg">
<path d="M30 15.4174C30 14.3552 29.5517 12.8932 27.6454 11.5201C29.1438 10.4256 30 9.10087 30 7.64289C30 3.68494 23.7036 0.696289 15.3516 0.696289C6.99949 0.696289 0.703125 3.6809 0.703125 7.64289C0.703125 9.10087 1.55933 10.4296 3.0577 11.5241C1.52702 12.6388 0.703125 13.9837 0.703125 15.4174C0.703125 16.8754 1.55933 18.2041 3.06174 19.2986C1.52702 20.4133 0.703125 21.7542 0.703125 23.192C0.703125 27.1499 6.99949 30.1386 15.3516 30.1386C23.7036 30.1386 30 27.1539 30 23.192C30 21.7542 29.1761 20.4093 27.6454 19.2986C29.1438 18.2041 30 16.8794 30 15.4174ZM15.3516 3.29319C22.8192 3.29319 27.4031 5.82546 27.4031 7.64289C27.4031 9.46031 22.8192 11.9926 15.3516 11.9926C7.88397 11.9926 3.30002 9.46031 3.30002 7.64289C3.30002 5.82546 7.88397 3.29319 15.3516 3.29319ZM15.3516 14.5895C19.1318 14.5895 22.488 13.9756 25.0324 12.9377C26.4782 13.6929 27.4031 14.646 27.4031 15.4174C27.4031 17.2348 22.8192 19.7671 15.3516 19.7671C7.88397 19.7671 3.30002 17.2348 3.30002 15.4174C3.30002 14.6258 4.20066 13.7131 5.7071 12.9538C8.24745 13.9837 11.5915 14.5895 15.3516 14.5895ZM27.4071 23.192C27.4071 25.0094 22.8232 27.5417 15.3556 27.5417C7.88801 27.5417 3.30406 25.0094 3.30406 23.192C3.30406 22.4004 4.2047 21.4917 5.71114 20.7283C8.25149 21.7542 11.5956 22.364 15.3556 22.364C19.1157 22.364 22.4597 21.7582 25.0001 20.7283C26.5065 21.4917 27.4071 22.4004 27.4071 23.192Z" fill="#CFB365"/>
</svg>
