<svg width="36" height="37" viewBox="0 0 36 37" fill="none" xmlns="http://www.w3.org/2000/svg">
<path d="M17.9268 36.1277C12.5216 36.1277 7.10155 36.1277 1.69644 36.1277C0.229121 36.1277 -0.0403866 35.8432 0.00453124 34.3609C0.229121 28.1623 5.60429 22.817 11.8628 22.7122C15.6958 22.6523 18.7353 21.2 20.8913 18.0408C21.4902 17.1724 22.179 16.9777 23.1821 17.0676C30.0396 17.7563 35.0255 22.4727 35.864 29.3002C36.1035 31.1867 35.9538 33.1332 35.9538 35.0497C35.9538 35.7534 35.4896 36.0978 34.6811 36.1127C33.5282 36.1277 32.3903 36.1127 31.2374 36.1127C26.8055 36.1277 22.3736 36.1277 17.9268 36.1277ZM26.8055 25.8415C27.3445 25.8415 27.8087 25.3774 27.8237 24.8533C27.8386 24.3143 27.3146 23.7753 26.7756 23.7903C26.2366 23.8052 25.7874 24.2544 25.7724 24.7934C25.7724 25.3923 26.2066 25.8415 26.8055 25.8415ZM15.5162 26.6201C14.9472 26.6201 14.4831 27.1292 14.513 27.6981C14.5429 28.2371 15.0071 28.6863 15.5311 28.6863C16.0702 28.6713 16.5193 28.2371 16.5343 27.6831C16.5493 27.0842 16.0851 26.6051 15.5162 26.6201ZM22.5383 30.7825C23.0773 30.7974 23.5565 30.3782 23.5864 29.8392C23.6313 29.2852 23.1522 28.7612 22.5982 28.7312C22.0592 28.7013 21.595 29.1355 21.5651 29.6895C21.5352 30.2734 21.9544 30.7525 22.5383 30.7825Z" fill="#CFB365"/>
<path d="M12.327 17.0524C13.4799 17.4717 14.5579 17.861 15.6359 18.2652C15.9054 18.37 16.1899 18.5197 16.3845 18.7294C16.7139 19.0737 16.7439 19.478 16.2049 19.6577C15.067 20.002 13.929 20.556 12.7761 20.586C9.45223 20.6608 6.44273 21.5292 3.74766 23.4907C3.6728 23.5505 3.58296 23.5805 3.3434 23.7003C3.3434 22.772 3.16373 21.8736 3.37334 21.095C3.91236 19.2384 4.61607 17.4118 5.30481 15.6001C5.54437 14.9712 6.09836 14.8215 6.74218 15.0461C7.89507 15.4504 9.03299 15.8696 10.2607 16.3038C10.5153 15.63 10.7698 14.9862 10.9944 14.3424C11.9077 11.827 12.836 9.31159 13.7194 6.79619C13.8093 6.54165 13.7344 6.12242 13.5697 5.89783C12.836 4.92461 12.5815 3.8915 12.9708 2.73861C13.1954 2.07981 13.42 1.42102 13.6745 0.777195C13.944 0.103427 14.4231 -0.151107 15.1119 0.0884547C16.4295 0.537633 17.7471 1.00178 19.0497 1.51085C19.6486 1.75042 19.9331 2.22954 19.6785 2.90331C19.424 3.60702 19.1994 4.32571 18.9149 5.01445C18.4657 6.12242 17.5824 6.70635 16.4444 6.97586C16.2049 7.03575 15.8905 7.23039 15.8156 7.44001C14.6777 10.5094 13.5697 13.6087 12.4467 16.6931C12.4168 16.7829 12.3869 16.8877 12.327 17.0524ZM15.3964 2.48407C15.1268 3.14287 14.6777 3.75675 15.2017 4.3856C15.4113 4.62516 15.9054 4.80483 16.2199 4.74494C17.0284 4.59521 17.0433 3.81664 17.2679 3.17281C16.6091 2.91828 16.0102 2.70866 15.3964 2.48407Z" fill="#CFB365"/>
</svg>
