<svg width="26" height="21" viewBox="0 0 26 21" fill="none" xmlns="http://www.w3.org/2000/svg">
<path fill-rule="evenodd" clip-rule="evenodd" d="M5.64847 8.72796C5.56831 8.8035 5.48815 8.87903 5.40798 8.95612C5.39172 8.90735 5.39927 8.85858 5.40553 8.81818C5.40639 8.8126 5.40723 8.80718 5.40798 8.80194C5.7595 7.03202 6.59821 5.53961 7.97345 4.36788C9.76804 2.84463 11.8463 2.24643 14.1774 2.58562C16.0954 2.86313 17.6741 3.78201 18.9445 5.23742C19.407 5.77395 20.1718 5.86029 20.7083 5.41626C21.2386 4.97841 21.3188 4.2137 20.8686 3.66484C19.9867 2.59795 18.9199 1.75307 17.6865 1.13021C15.8179 0.180491 13.8383 -0.177194 11.7476 0.0818192C10.6499 0.217493 9.59537 0.525842 8.60248 1.00687C6.85722 1.85175 5.45115 3.09131 4.40893 4.73173C3.58872 6.01446 3.07686 7.41437 2.87335 8.93145C2.86768 8.96923 2.86606 9.00816 2.86442 9.04772C2.8607 9.13732 2.85685 9.23013 2.80551 9.31997C2.69061 9.22848 2.57792 9.13698 2.46616 9.04625C2.254 8.87401 2.04521 8.7045 1.83113 8.54293C1.28226 8.12357 0.486723 8.25925 0.159872 8.81428C-0.14231 9.31997 -0.00663648 9.9675 0.486723 10.356L1.04175 10.8C1.24143 10.9608 1.44064 11.1225 1.63989 11.2842C2.16681 11.7119 2.69405 12.1398 3.23103 12.5515C3.82923 13.014 4.5261 12.9955 5.0503 12.4528C5.33404 12.1563 5.63233 11.8773 5.93118 11.5978C6.06751 11.4703 6.20396 11.3427 6.3392 11.2132C6.43386 11.1228 6.52917 11.0327 6.62461 10.9425C6.94574 10.6389 7.26833 10.334 7.57259 10.0107C8.11529 9.43097 7.93028 8.48742 7.22108 8.20374C6.71538 8.00023 6.27136 8.14207 5.88901 8.49976C5.80883 8.57685 5.72865 8.6524 5.64847 8.72796ZM20.2399 11.9297C20.3988 11.7761 20.5564 11.6238 20.7271 11.4845C20.7394 11.7127 20.6777 11.9409 20.6161 12.1506C19.9994 14.5742 18.5809 16.3503 16.3115 17.4234C14.7451 18.1696 13.0923 18.3299 11.4026 17.9537C9.54014 17.5344 8.0354 16.5476 6.86984 15.0429C6.44432 14.5002 5.67961 14.3954 5.13691 14.8024C4.63122 15.1847 4.43388 15.9433 4.88407 16.5415C5.06291 16.782 5.25409 17.0102 5.45143 17.2322C6.46898 18.3607 7.68388 19.2241 9.08379 19.8223C10.1815 20.2972 11.3347 20.5562 12.525 20.6302C12.9628 20.661 13.4068 20.6549 13.8447 20.6117C14.3627 20.5624 14.8746 20.5007 15.3803 20.3773C17.4401 19.884 19.1915 18.8726 20.6161 17.3123C22.016 15.7768 22.867 13.9822 23.1939 11.9347C23.2125 11.8116 23.2289 11.6862 23.2458 11.5572C23.2568 11.473 23.268 11.3872 23.2802 11.2995C23.3172 11.3242 23.3419 11.3427 23.3665 11.3612C23.4627 11.4365 23.5581 11.5138 23.6538 11.5914C23.8405 11.7427 24.0281 11.8948 24.2237 12.0334C24.7479 12.3973 25.4325 12.2924 25.7902 11.8052C26.1478 11.3304 26.0368 10.615 25.5496 10.2203C25.3557 10.0626 25.1596 9.90595 24.9632 9.74903C24.6911 9.53168 24.4183 9.3138 24.1497 9.09175C24.0194 8.98564 23.8863 8.88234 23.7531 8.77896C23.445 8.53988 23.1364 8.30041 22.8608 8.02486C22.3428 7.50067 21.5719 7.4945 21.0477 8.01253C20.8011 8.25915 20.5483 8.49961 20.2955 8.74007L20.2954 8.74023C20.1186 8.90994 19.9413 9.07913 19.7641 9.24826C19.3231 9.66915 18.8826 10.0896 18.4514 10.5163C18.0999 10.8678 18.0321 11.466 18.2603 11.8731C18.6303 12.5206 19.4998 12.6316 20.061 12.1012C20.1213 12.0443 20.1807 11.9869 20.2399 11.9297ZM20.7329 11.4744C20.7331 11.4738 20.7332 11.473 20.7332 11.4722Z" fill="#D5B157"/>
</svg>
