<svg width="305" height="80" viewBox="0 0 305 80" fill="none" xmlns="http://www.w3.org/2000/svg">
<path d="M128.887 31.0438C127.873 31.6106 125.404 33.4215 124.784 35.1076C125.697 34.2093 127.878 32.0285 130.16 30.8997C130.284 30.8084 130.049 30.9909 130.16 30.8997C128.742 30.818 126.975 30.4049 125.241 29.1848C125.226 29.1752 125.212 29.1656 125.193 29.1511C122.536 27.5564 116.839 23.4493 114.231 16.2871C114.231 16.2871 115.129 26.1057 124.794 30.4529C123.156 30.8708 120.341 30.6307 116.618 26.7494C110.225 20.082 112.708 11.8054 112.708 11.8054C113.88 13.1168 118.011 14.9229 122.234 17.6273C128.642 21.7296 127.513 26.9031 126.778 28.8485C127.301 29.0263 128.281 29.2424 129.199 29.3721C128.901 28.4306 128.459 26.9127 128.997 24.9336C128.992 24.9336 128.992 24.9336 128.987 24.9336C129.199 23.8288 130.015 20.4038 132.71 15.533C132.71 15.533 128.718 19.9955 128.353 24.2851C127.892 23.5406 127.321 22.1667 127.676 20.2981C129.708 11.7958 137.278 8.62061 137.278 8.62061C137.278 8.62061 137.62 13.4866 135.809 18.2614C133.882 23.3484 131.13 24.5637 129.732 24.8423C129.535 25.4764 129.189 27.2057 130.289 29.4634C131.572 29.497 190.973 31.1398 192.448 30.5058C191.655 31.5914 191.04 32.4368 191.04 32.4368C191.04 32.4368 132.388 30.8372 131.274 30.8948C131.274 30.8948 130.414 31.2839 130.155 31.4761C130.544 32.2543 130.227 34.0124 128.522 35.7705C126.312 38.0426 123.161 38.0618 121.672 38.4557C122.503 30.621 126.749 30.5106 128.887 31.0438Z" fill="#31963A"/>
<path d="M139.109 31.6924C139.109 31.6924 137.427 35.5545 137.533 35.9724C135.943 36.3134 132.062 37.7593 132.081 43.711C132.09 47.6307 132.657 51.1181 132.287 52.4391C132.287 52.4391 138.782 50.5657 140.458 43.5428C141.433 39.4502 140.401 37.4999 139.43 36.5968C140.66 44.7918 134.584 49.5425 134.584 49.5425C138.191 44.7918 138.479 39.3109 138.402 36.8851C138.402 36.8707 138.402 36.8562 138.402 36.8418" fill="#31963A"/>
<path d="M152.611 30.7844C153.284 30.8709 187.851 33.1334 187.851 33.1334C187.851 33.1334 188.182 33.6714 188.609 34.3679C187.745 33.9163 152.727 31.649 151.948 31.6058C151.948 31.6058 149.936 34.1757 149.614 34.2574C149.965 35.4679 150.411 38.6479 146.347 40.8287C143.672 42.265 141.088 43.1681 140.319 43.903C140.319 43.903 139.2 38.7872 143.374 35.0548C145.805 32.8788 147.515 32.8692 148.485 33.1958C142.442 35.3766 141.443 41.2706 141.443 41.2706C143.355 37.0627 146.986 34.8434 148.663 34.0028C148.672 33.998 148.682 33.9932 148.692 33.9836C149.796 33.3255 151.069 30.722 151.929 30.7364C151.867 30.6787 152.001 30.7988 151.929 30.7364" fill="#31963A"/>
<path d="M156.762 31.9419C156.368 31.0389 155.767 29.5738 156.094 27.5467C156.089 27.5467 156.089 27.5467 156.084 27.5467C156.176 26.4274 156.632 22.9304 158.794 17.805C158.794 17.805 155.297 22.6614 155.383 26.9654C154.85 26.2737 154.134 24.9671 154.288 23.0745C155.407 14.4088 162.598 10.4507 162.598 10.4507C162.598 10.4507 163.448 15.2543 162.151 20.1972C160.773 25.4571 158.164 26.9558 156.805 27.3833C156.675 28.0366 156.517 29.7899 157.847 31.9227C159.13 31.8171 191.597 27.6571 193 26.8694C192.328 28.0318 191.804 28.9397 191.804 28.9397C191.804 28.9397 160.091 33.0708 158.986 33.2485C158.986 33.2485 158.169 33.7289 157.934 33.945C158.4 34.6752 158.27 36.4573 156.762 38.3884C154.807 40.8814 151.675 41.2321 150.234 41.7797C150.229 33.897 154.442 33.335 156.618 33.6424C155.667 34.3149 153.404 36.3709 152.967 38.1194C153.784 37.1298 155.715 34.7328 157.867 33.3638C157.982 33.2581 157.766 33.4647 157.867 33.3638" fill="#31963A"/>
<path d="M139.435 19.7266L140.137 23.6847L143.302 26.6726H144.023L144.753 27.3547H145.872L139.435 19.7266Z" fill="white"/>
<path d="M142.947 34.7715C142.947 34.7715 146.16 45.373 146.16 45.839C146.16 46.3049 145.819 47.4482 145.54 47.5058C145.262 47.5683 142.572 47.8757 142.293 46.6412C142.015 45.4067 140.843 38.11 140.843 38.11L141.328 35.3576C141.328 35.3576 142.481 34.0942 142.822 34.123C143.167 34.1519 142.947 34.7715 142.947 34.7715Z" fill="white"/>
<path d="M128.699 37.7399C128.329 37.9849 124.093 41.4195 123.535 41.7893C122.978 42.1592 120.817 42.2841 120.937 41.357C121.057 40.4299 121.369 38.7006 122.171 36.8753C122.973 35.0499 124.583 32.6385 125.169 32.1149C125.755 31.5913 128.57 30.0446 129.559 29.0839C130.549 28.1279 133.205 27.196 133.825 26.9511C134.444 26.7061 138.138 26.1152 138.138 26.1152C138.138 26.1152 140.872 27.3209 141.088 27.6284C141.304 27.9358 138.984 29.6074 138.864 29.79C138.739 29.9773 134.843 35.1076 134.627 35.3237C134.416 35.5447 128.699 37.7399 128.699 37.7399Z" fill="white"/>
<path d="M144.023 26.6722C142.899 25.7019 140.266 22.8005 139.925 20.5284C140.843 21.8879 143.009 25.1783 145.579 27.1814C145.713 27.3303 145.459 27.0373 145.579 27.1814C143.782 26.922 141.462 26.9845 138.974 28.0701C138.95 28.0797 138.931 28.0893 138.907 28.0989C135.17 29.4151 126.984 33.0994 121.873 41.4096C121.873 41.4096 125.514 29.3334 138.739 26.3648C136.793 25.4233 133.205 25.0006 127.546 28.9107C117.829 35.6261 118.818 46.6312 118.818 46.6312C120.619 45.2861 126.264 44.0853 132.249 41.7795C141.333 38.2825 141.236 31.5143 140.819 28.8867C141.52 28.8002 142.807 28.7762 143.989 28.8531C143.379 29.9579 142.428 31.7496 142.596 34.3628C142.591 34.3628 142.591 34.3628 142.586 34.3628C142.567 35.7991 142.716 40.3048 144.844 47.0923C144.844 47.0923 140.987 40.4778 141.626 35.0113C140.857 35.8279 139.791 37.3987 139.757 39.8341C140.117 51.0024 148.793 56.9252 148.793 56.9252C148.793 56.9252 150.469 50.916 149.422 44.4647C148.307 37.5956 145.175 35.3667 143.499 34.6558C143.417 33.8104 143.427 31.5575 145.382 29.0068C147.001 29.295 189.22 38.8589 190.906 40.0358C190.195 38.4699 189.637 37.2545 189.637 37.2545C189.637 37.2545 148.365 27.8251 146.982 27.4648C146.982 27.4648 146.002 26.7539 145.728 26.4513C146.415 25.577 146.468 23.2953 144.777 20.6533C142.596 17.238 138.647 16.4118 136.884 15.5327C135.914 25.5674 141.208 26.7971 144.023 26.6722Z" fill="#31963A"/>
<path d="M135.347 60.2449L133.695 60.437C133.604 60.4466 133.522 60.5043 133.479 60.5859L128.277 71.2211C128.229 71.3123 128.137 71.3748 128.032 71.3748H126.691C126.59 71.3748 126.499 71.3171 126.451 71.2307L120.793 60.5235C120.749 60.4418 120.663 60.3842 120.572 60.3794L119.231 60.2833C119.087 60.2737 118.977 60.1536 118.977 60.0095V59.9711C118.977 59.8222 119.097 59.6973 119.251 59.6973H126.278C126.427 59.6973 126.552 59.8174 126.552 59.9711V59.9903C126.552 60.1344 126.442 60.2545 126.297 60.2641L124.568 60.389C124.376 60.4034 124.256 60.6099 124.342 60.7829L128.176 68.5215C128.277 68.728 128.574 68.7232 128.67 68.5119L132.134 60.8117C132.211 60.6388 132.095 60.4466 131.908 60.4274L130.174 60.2689C130.035 60.2545 129.924 60.1392 129.924 59.9951V59.9711C129.924 59.8222 130.044 59.6973 130.198 59.6973H135.319C135.468 59.6973 135.592 59.8174 135.592 59.9711C135.588 60.1104 135.482 60.2305 135.347 60.2449Z" fill="black"/>
<path d="M153.351 60.2881L151.732 60.4466C151.593 60.461 151.487 60.5763 151.487 60.7156L151.377 71.1106C151.377 71.2595 151.252 71.3796 151.103 71.3796H149.897C149.825 71.3796 149.758 71.3508 149.71 71.3027L140.113 62.0943C139.94 61.9261 139.647 62.051 139.651 62.2912L139.714 70.3132C139.714 70.4573 139.824 70.5726 139.968 70.5822L142.399 70.7503C142.543 70.7599 142.654 70.88 142.654 71.0241V71.0433C142.654 71.1923 142.534 71.3171 142.38 71.3171H136.731C136.582 71.3171 136.457 71.1971 136.457 71.0433V71.0193C136.457 70.88 136.563 70.7599 136.707 70.7455L138.345 70.6014C138.484 70.587 138.59 70.4717 138.595 70.3324L138.705 60.8597C138.705 60.7829 138.671 60.706 138.614 60.6532L138.407 60.4706C138.364 60.4322 138.306 60.4082 138.249 60.4034L136.846 60.2881C136.702 60.2785 136.596 60.1584 136.596 60.0143V59.9759C136.596 59.827 136.716 59.7021 136.87 59.7021H141.328C141.4 59.7021 141.462 59.7309 141.515 59.7789L149.965 67.7769C150.138 67.9402 150.426 67.8153 150.426 67.5752L150.363 60.7348C150.363 60.5907 150.253 60.4754 150.109 60.4658L147.654 60.2833C147.51 60.2737 147.4 60.1536 147.4 60.0095V59.9711C147.4 59.8222 147.52 59.6973 147.673 59.6973H153.322C153.471 59.6973 153.596 59.8174 153.596 59.9711V60.0143C153.601 60.1584 153.495 60.2737 153.351 60.2881Z" fill="black"/>
<path d="M160.758 71.3124H155.561C155.407 71.3124 155.282 71.1827 155.287 71.029V71.0098C155.292 70.8705 155.402 70.76 155.542 70.7504L157.204 70.6399C157.343 70.6303 157.454 70.515 157.458 70.3757C157.497 68.9106 157.497 67.4551 157.497 66.1822V65.135C157.497 63.6507 157.497 62.1568 157.458 60.6581C157.454 60.5188 157.343 60.4035 157.204 60.3939L155.527 60.2834C155.383 60.2738 155.273 60.1537 155.273 60.0096V59.976C155.273 59.827 155.393 59.7021 155.547 59.7021H162.781C162.93 59.7021 163.055 59.8222 163.055 59.976V60.0096C163.055 60.1537 162.944 60.2738 162.8 60.2834L161.003 60.4083C160.864 60.4179 160.754 60.5284 160.749 60.6677C160.691 62.1376 160.691 63.6171 160.691 65.0101V66.0573C160.691 67.4311 160.691 68.9202 160.749 70.4142" fill="#31963A"/>
<path d="M185.977 71.0196V71.0388C185.977 71.1877 185.857 71.3126 185.703 71.3126H178.839C178.69 71.3126 178.565 71.1925 178.565 71.0388V71.0148C178.565 70.8707 178.676 70.7554 178.815 70.741L180.391 70.6209C180.583 70.6065 180.698 70.4047 180.616 70.2318L179.416 67.7099C179.372 67.6138 179.276 67.5562 179.171 67.5562H174.036C173.93 67.5562 173.829 67.6186 173.786 67.7195L172.662 70.227C172.585 70.3999 172.7 70.5969 172.887 70.6113L174.501 70.7458C174.641 70.7554 174.751 70.8755 174.751 71.0196V71.0436C174.751 71.1925 174.631 71.3174 174.477 71.3174H169.655C169.506 71.3174 169.381 71.1973 169.381 71.0436V71.0148C169.381 70.8755 169.487 70.7554 169.626 70.741L171.197 70.5921C171.293 70.5825 171.374 70.5248 171.418 70.4384L176.509 59.808C176.553 59.7119 176.649 59.6543 176.754 59.6543H178.412C178.517 59.6543 178.609 59.7119 178.657 59.8032L183.998 70.4864C184.041 70.5729 184.128 70.6305 184.224 70.6353L185.723 70.7458C185.867 70.7554 185.977 70.8755 185.977 71.0196ZM178.887 66.5907L176.798 62.1474C176.697 61.936 176.399 61.9408 176.303 62.1522L174.29 66.5955C174.208 66.778 174.338 66.9798 174.54 66.9798H178.642C178.839 66.9798 178.974 66.7684 178.887 66.5907Z" fill="black"/>
<path d="M161.364 71.3751C165.135 71.0437 167.839 69.1991 169.078 65.2842C165.308 65.6204 162.603 67.4602 161.364 71.3751Z" fill="#31963A"/>
</svg>
