<svg width="32" height="32" viewBox="0 0 32 32" fill="none" xmlns="http://www.w3.org/2000/svg">
<path d="M31.3645 22.6846H20.636L17.5295 25.791H28.4436C28.7909 25.791 29.0712 26.0713 29.0712 26.4186V27.9422C29.0712 28.2896 28.7909 28.5699 28.4436 28.5699H3.55643C3.20908 28.5699 2.92883 28.2896 2.92883 27.9422V26.4186C2.92883 26.0713 3.20908 25.791 3.55643 25.791H9.8917L6.78525 22.6846H0.6355C0.284199 22.6846 0 22.9688 0 23.3201V31.0487C0 31.4 0.284199 31.6842 0.6355 31.6842H31.3645C31.7158 31.6842 32 31.4 32 31.0487V23.3201C32 22.9688 31.7158 22.6846 31.3645 22.6846Z" fill="#CFB365"/>
<path d="M9.65109 22.6846L12.7575 25.791L13.2628 26.2963C13.3851 26.4187 13.5509 26.4818 13.7128 26.4818C13.8746 26.4818 14.0364 26.4187 14.1627 26.2963L14.668 25.791L17.7744 22.6846L28.8266 11.6324C29.0753 11.3837 29.0753 10.9851 28.8266 10.7364L18.2757 0.185519C18.1534 0.0631555 17.9915 0 17.8258 0C17.66 0 17.5021 0.0631555 17.3758 0.185519L2.7119 14.8494C2.46322 15.0981 2.46322 15.4967 2.7119 15.7454L9.65109 22.6846ZM9.35899 15.0033L9.75766 14.6047C9.88002 14.4823 10.0419 14.4191 10.2037 14.4191C10.3655 14.4191 10.5274 14.4823 10.6497 14.6047L13.697 17.6519L19.156 12.1929C19.2783 12.0706 19.4402 12.0074 19.602 12.0074C19.7638 12.0074 19.9257 12.0706 20.048 12.1929L20.4467 12.5916C20.6914 12.8363 20.6914 13.235 20.4467 13.4837L14.9798 18.9387L14.2535 19.6689C14.1391 19.7637 13.9338 19.8702 13.693 19.8702C13.5193 19.8702 13.3259 19.815 13.1325 19.661L12.4062 18.9387L9.35899 15.8915C9.11427 15.6467 9.11427 15.2481 9.35899 15.0033V15.0033Z" fill="#CFB365"/>
</svg>
